<svg version="1.0" preserveAspectRatio="xMidYMid meet" viewBox="6.642862500000001 10.392862222857 109.871625 94.12237249006999" zoomAndPan="magnify" xmlns:xlink="http://www.w3.org/1999/xlink" xmlns="http://www.w3.org/2000/svg" style="max-height: 500px" width="109.871625" height="94.12237249006999"><defs><g/><clipPath id="d979523b32"><path clip-rule="nonzero" d="M 12.03125 15.851562 L 111.339844 15.851562 L 111.339844 50.703125 L 12.03125 50.703125 Z M 12.03125 15.851562"/></clipPath><clipPath id="823daa4ac4"><path clip-rule="nonzero" d="M 12.03125 47.042969 L 88.9375 47.042969 L 88.9375 100.769531 L 12.03125 100.769531 Z M 12.03125 47.042969"/></clipPath></defs><g clip-path="url(#d979523b32)"><path fill-rule="nonzero" fill-opacity="1" d="M 88.9375 15.851562 L 46.804688 15.851562 C 21.609375 15.851562 12.03125 31.417969 12.03125 50.625 C 12.578125 49.996094 13.148438 49.382812 13.742188 48.785156 C 20.457031 42.074219 29.382812 38.375 38.878906 38.375 L 38.691406 38.328125 L 88.9375 38.328125 C 101.351562 38.328125 111.414062 28.265625 111.414062 15.851562 L 88.9375 15.851562" fill="#2684ff"/></g><g clip-path="url(#823daa4ac4)"><path fill-rule="nonzero" fill-opacity="1" d="M 65.0625 78.292969 L 38.964844 78.292969 C 36.511719 78.292969 34.460938 76.289062 34.507812 73.835938 C 34.550781 71.460938 36.492188 69.546875 38.878906 69.546875 L 66.460938 69.546875 C 78.875 69.546875 88.9375 59.484375 88.9375 47.074219 L 38.878906 47.074219 C 24.050781 47.074219 12.03125 59.09375 12.03125 73.921875 C 12.03125 88.75 24.050781 100.769531 38.878906 100.769531 L 42.585938 100.769531 C 55 100.769531 65.0625 90.707031 65.0625 78.292969" fill="#2684ff"/></g><g fill-opacity="1" fill="#000000"><g transform="translate(121.609395, 60.690584)"><g><path d="M 32.203125 -5.671875 L 32.203125 0 L 4.890625 0 L 4.890625 -36.40625 L 31.46875 -36.40625 L 31.46875 -30.734375 L 11.65625 -30.734375 L 11.65625 -21.28125 L 29.234375 -21.28125 L 29.234375 -15.703125 L 11.65625 -15.703125 L 11.65625 -5.671875 Z M 32.203125 -5.671875"/></g></g></g><g fill-opacity="1" fill="#000000"><g transform="translate(156.453128, 60.690584)"><g><path d="M 4.890625 -36.40625 L 11.65625 -36.40625 L 11.65625 -5.71875 L 30.6875 -5.71875 L 30.6875 0 L 4.890625 0 Z M 4.890625 -36.40625"/></g></g></g><g fill-opacity="1" fill="#000000"><g transform="translate(187.604466, 60.690584)"><g><path d="M 4.890625 -36.40625 L 11.65625 -36.40625 L 11.65625 0 L 4.890625 0 Z M 4.890625 -36.40625"/></g></g></g><g fill-opacity="1" fill="#000000"><g transform="translate(204.194244, 60.690584)"><g><path d="M 19.875 -36.40625 C 23.03125 -36.40625 25.773438 -35.882812 28.109375 -34.84375 C 30.453125 -33.8125 32.25 -32.320312 33.5 -30.375 C 34.75 -28.4375 35.375 -26.128906 35.375 -23.453125 C 35.375 -20.816406 34.75 -18.519531 33.5 -16.5625 C 32.25 -14.601562 30.453125 -13.101562 28.109375 -12.0625 C 25.773438 -11.019531 23.03125 -10.5 19.875 -10.5 L 11.65625 -10.5 L 11.65625 0 L 4.890625 0 L 4.890625 -36.40625 Z M 19.5625 -16.234375 C 22.507812 -16.234375 24.742188 -16.851562 26.265625 -18.09375 C 27.796875 -19.34375 28.5625 -21.128906 28.5625 -23.453125 C 28.5625 -25.773438 27.796875 -27.5625 26.265625 -28.8125 C 24.742188 -30.0625 22.507812 -30.6875 19.5625 -30.6875 L 11.65625 -30.6875 L 11.65625 -16.234375 Z M 19.5625 -16.234375"/></g></g></g><g fill-opacity="1" fill="#000000"><g transform="translate(241.950289, 60.690584)"><g><path d="M 16.171875 0.515625 C 13.367188 0.515625 10.65625 0.117188 8.03125 -0.671875 C 5.414062 -1.472656 3.347656 -2.53125 1.828125 -3.84375 L 4.15625 -9.109375 C 5.644531 -7.921875 7.472656 -6.953125 9.640625 -6.203125 C 11.816406 -5.460938 13.992188 -5.09375 16.171875 -5.09375 C 18.878906 -5.09375 20.898438 -5.523438 22.234375 -6.390625 C 23.566406 -7.265625 24.234375 -8.410156 24.234375 -9.828125 C 24.234375 -10.867188 23.859375 -11.726562 23.109375 -12.40625 C 22.367188 -13.082031 21.425781 -13.609375 20.28125 -13.984375 C 19.132812 -14.367188 17.578125 -14.804688 15.609375 -15.296875 C 12.828125 -15.953125 10.578125 -16.609375 8.859375 -17.265625 C 7.148438 -17.921875 5.675781 -18.953125 4.4375 -20.359375 C 3.207031 -21.765625 2.59375 -23.664062 2.59375 -26.0625 C 2.59375 -28.070312 3.140625 -29.898438 4.234375 -31.546875 C 5.328125 -33.191406 6.972656 -34.5 9.171875 -35.46875 C 11.378906 -36.445312 14.078125 -36.9375 17.265625 -36.9375 C 19.484375 -36.9375 21.664062 -36.65625 23.8125 -36.09375 C 25.96875 -35.539062 27.828125 -34.742188 29.390625 -33.703125 L 27.25 -28.453125 C 25.65625 -29.390625 23.988281 -30.097656 22.25 -30.578125 C 20.519531 -31.066406 18.84375 -31.3125 17.21875 -31.3125 C 14.550781 -31.3125 12.566406 -30.859375 11.265625 -29.953125 C 9.960938 -29.054688 9.3125 -27.863281 9.3125 -26.375 C 9.3125 -25.332031 9.679688 -24.476562 10.421875 -23.8125 C 11.171875 -23.15625 12.117188 -22.632812 13.265625 -22.25 C 14.410156 -21.875 15.972656 -21.445312 17.953125 -20.96875 C 20.648438 -20.34375 22.863281 -19.691406 24.59375 -19.015625 C 26.332031 -18.335938 27.816406 -17.304688 29.046875 -15.921875 C 30.273438 -14.535156 30.890625 -12.660156 30.890625 -10.296875 C 30.890625 -8.285156 30.34375 -6.460938 29.25 -4.828125 C 28.164062 -3.203125 26.515625 -1.90625 24.296875 -0.9375 C 22.078125 0.03125 19.367188 0.515625 16.171875 0.515625 Z M 16.171875 0.515625"/></g></g></g><g fill-opacity="1" fill="#000000"><g transform="translate(274.661794, 60.690584)"><g><path d="M 21.90625 0.515625 C 18.1875 0.515625 14.835938 -0.285156 11.859375 -1.890625 C 8.878906 -3.503906 6.535156 -5.742188 4.828125 -8.609375 C 3.128906 -11.472656 2.28125 -14.671875 2.28125 -18.203125 C 2.28125 -21.742188 3.128906 -24.941406 4.828125 -27.796875 C 6.535156 -30.660156 8.878906 -32.898438 11.859375 -34.515625 C 14.835938 -36.128906 18.1875 -36.9375 21.90625 -36.9375 C 25.613281 -36.9375 28.957031 -36.128906 31.9375 -34.515625 C 34.914062 -32.898438 37.253906 -30.671875 38.953125 -27.828125 C 40.660156 -24.984375 41.515625 -21.773438 41.515625 -18.203125 C 41.515625 -14.628906 40.660156 -11.421875 38.953125 -8.578125 C 37.253906 -5.734375 34.914062 -3.503906 31.9375 -1.890625 C 28.957031 -0.285156 25.613281 0.515625 21.90625 0.515625 Z M 21.90625 -5.40625 C 24.332031 -5.40625 26.515625 -5.953125 28.453125 -7.046875 C 30.390625 -8.140625 31.910156 -9.664062 33.015625 -11.625 C 34.128906 -13.582031 34.6875 -15.773438 34.6875 -18.203125 C 34.6875 -20.628906 34.128906 -22.820312 33.015625 -24.78125 C 31.910156 -26.738281 30.390625 -28.265625 28.453125 -29.359375 C 26.515625 -30.453125 24.332031 -31 21.90625 -31 C 19.46875 -31 17.28125 -30.453125 15.34375 -29.359375 C 13.40625 -28.265625 11.878906 -26.738281 10.765625 -24.78125 C 9.660156 -22.820312 9.109375 -20.628906 9.109375 -18.203125 C 9.109375 -15.773438 9.660156 -13.582031 10.765625 -11.625 C 11.878906 -9.664062 13.40625 -8.140625 15.34375 -7.046875 C 17.28125 -5.953125 19.46875 -5.40625 21.90625 -5.40625 Z M 21.90625 -5.40625"/></g></g></g><g fill-opacity="1" fill="#000000"><g transform="translate(318.450485, 60.690584)"><g><path d="M 37.25 -36.40625 L 37.25 0 L 31.671875 0 L 11.59375 -24.65625 L 11.59375 0 L 4.890625 0 L 4.890625 -36.40625 L 10.453125 -36.40625 L 30.53125 -11.75 L 30.53125 -36.40625 Z M 37.25 -36.40625"/></g></g></g><g fill-opacity="1" fill="#2e2e2e"><g transform="translate(121.609395, 90.710445)"><g><path d="M 0.984375 -3.53125 C 0.984375 -3.644531 1.050781 -3.703125 1.1875 -3.703125 L 2.421875 -3.703125 C 2.535156 -3.703125 2.613281 -3.640625 2.65625 -3.515625 C 3.195312 -1.890625 4.585938 -1.078125 6.828125 -1.078125 C 7.992188 -1.078125 8.882812 -1.285156 9.5 -1.703125 C 10.125 -2.117188 10.4375 -2.632812 10.4375 -3.25 C 10.4375 -3.863281 10.238281 -4.359375 9.84375 -4.734375 C 9.457031 -5.109375 8.847656 -5.414062 8.015625 -5.65625 L 4.59375 -6.625 C 2.382812 -7.257812 1.28125 -8.460938 1.28125 -10.234375 C 1.28125 -11.328125 1.742188 -12.21875 2.671875 -12.90625 C 3.609375 -13.59375 4.859375 -13.9375 6.421875 -13.9375 C 7.984375 -13.9375 9.242188 -13.601562 10.203125 -12.9375 C 11.160156 -12.269531 11.765625 -11.347656 12.015625 -10.171875 C 12.035156 -10.015625 11.96875 -9.9375 11.8125 -9.9375 L 10.59375 -9.9375 C 10.476562 -9.9375 10.394531 -10.003906 10.34375 -10.140625 C 9.800781 -11.765625 8.503906 -12.578125 6.453125 -12.578125 C 5.378906 -12.578125 4.539062 -12.367188 3.9375 -11.953125 C 3.332031 -11.535156 3.03125 -11.015625 3.03125 -10.390625 C 3.03125 -9.765625 3.222656 -9.269531 3.609375 -8.90625 C 4.003906 -8.550781 4.625 -8.25 5.46875 -8 L 8.890625 -7.015625 C 11.085938 -6.390625 12.1875 -5.1875 12.1875 -3.40625 C 12.1875 -2.300781 11.707031 -1.40625 10.75 -0.71875 C 9.800781 -0.0390625 8.492188 0.296875 6.828125 0.296875 C 5.160156 0.296875 3.832031 -0.0351562 2.84375 -0.703125 C 2.351562 -1.035156 1.921875 -1.457031 1.546875 -1.96875 C 1.171875 -2.476562 0.984375 -3 0.984375 -3.53125 Z M 0.984375 -3.53125"/></g></g></g><g fill-opacity="1" fill="#2e2e2e"><g transform="translate(136.723205, 90.710445)"><g><path d="M 12.671875 -13.65625 C 12.804688 -13.65625 12.875 -13.609375 12.875 -13.515625 C 12.875 -13.484375 12.859375 -13.460938 12.828125 -13.453125 L 7.5 -4.578125 L 7.5 -0.1875 C 7.5 -0.0625 7.4375 0 7.3125 0 L 5.953125 0 C 5.816406 0 5.75 -0.0625 5.75 -0.1875 L 5.75 -4.578125 L 0.421875 -13.453125 C 0.410156 -13.460938 0.40625 -13.484375 0.40625 -13.515625 L 0.40625 -13.5625 C 0.445312 -13.625 0.503906 -13.65625 0.578125 -13.65625 L 2.015625 -13.65625 C 2.179688 -13.65625 2.3125 -13.585938 2.40625 -13.453125 L 6.625 -6.421875 L 10.859375 -13.453125 C 10.953125 -13.585938 11.082031 -13.65625 11.25 -13.65625 Z M 12.671875 -13.65625"/></g></g></g><g fill-opacity="1" fill="#2e2e2e"><g transform="translate(151.941788, 90.710445)"><g><path d="M 1.953125 -0.1875 L 1.953125 -13.453125 C 1.953125 -13.585938 2.015625 -13.65625 2.140625 -13.65625 L 3.515625 -13.65625 C 3.898438 -13.65625 4.222656 -13.457031 4.484375 -13.0625 L 11.703125 -2.34375 L 11.703125 -13.453125 C 11.703125 -13.585938 11.765625 -13.65625 11.890625 -13.65625 L 13.265625 -13.65625 C 13.390625 -13.65625 13.453125 -13.585938 13.453125 -13.453125 L 13.453125 -0.1875 C 13.453125 -0.0625 13.390625 0 13.265625 0 L 11.890625 0 C 11.503906 0 11.179688 -0.191406 10.921875 -0.578125 L 3.703125 -11.3125 L 3.703125 -0.1875 C 3.703125 -0.0625 3.640625 0 3.515625 0 L 2.140625 0 C 2.015625 0 1.953125 -0.0625 1.953125 -0.1875 Z M 1.953125 -0.1875"/></g></g></g><g fill-opacity="1" fill="#2e2e2e"><g transform="translate(169.303431, 90.710445)"><g><path d="M 1.953125 -0.1875 L 1.953125 -13.453125 C 1.953125 -13.585938 2.015625 -13.65625 2.140625 -13.65625 L 11.59375 -13.65625 C 11.71875 -13.65625 11.78125 -13.585938 11.78125 -13.453125 L 11.78125 -12.484375 C 11.78125 -12.347656 11.71875 -12.28125 11.59375 -12.28125 L 3.703125 -12.28125 L 3.703125 -7.609375 L 10.21875 -7.609375 C 10.351562 -7.609375 10.421875 -7.539062 10.421875 -7.40625 L 10.421875 -6.4375 C 10.421875 -6.300781 10.351562 -6.234375 10.21875 -6.234375 L 3.703125 -6.234375 L 3.703125 -1.359375 L 11.59375 -1.359375 C 11.71875 -1.359375 11.78125 -1.296875 11.78125 -1.171875 L 11.78125 -0.1875 C 11.78125 -0.0625 11.71875 0 11.59375 0 L 2.140625 0 C 2.015625 0 1.953125 -0.0625 1.953125 -0.1875 Z M 1.953125 -0.1875"/></g></g></g><g fill-opacity="1" fill="#2e2e2e"><g transform="translate(183.817183, 90.710445)"><g><path d="M 1.953125 -0.1875 L 1.953125 -13.453125 C 1.953125 -13.578125 2.015625 -13.644531 2.140625 -13.65625 L 7.609375 -13.65625 C 9.203125 -13.65625 10.441406 -13.285156 11.328125 -12.546875 C 12.222656 -11.804688 12.671875 -10.773438 12.671875 -9.453125 C 12.671875 -8.503906 12.328125 -7.679688 11.640625 -6.984375 C 10.960938 -6.296875 10.007812 -5.851562 8.78125 -5.65625 C 9.144531 -5.5625 9.472656 -5.398438 9.765625 -5.171875 C 10.054688 -4.953125 10.265625 -4.753906 10.390625 -4.578125 C 10.523438 -4.410156 10.703125 -4.148438 10.921875 -3.796875 L 13.265625 -0.234375 C 13.296875 -0.179688 13.3125 -0.128906 13.3125 -0.078125 C 13.3125 -0.0234375 13.242188 0 13.109375 0 L 11.5 0 C 11.394531 0 11.300781 -0.0625 11.21875 -0.1875 L 8.875 -3.796875 C 8.25 -4.773438 7.335938 -5.265625 6.140625 -5.265625 L 3.703125 -5.265625 L 3.703125 -0.1875 C 3.703125 -0.0625 3.640625 0 3.515625 0 L 2.140625 0 C 2.015625 0 1.953125 -0.0625 1.953125 -0.1875 Z M 3.703125 -6.625 L 7.609375 -6.625 C 8.609375 -6.625 9.410156 -6.867188 10.015625 -7.359375 C 10.617188 -7.847656 10.921875 -8.546875 10.921875 -9.453125 C 10.921875 -10.367188 10.617188 -11.066406 10.015625 -11.546875 C 9.410156 -12.035156 8.609375 -12.28125 7.609375 -12.28125 L 3.703125 -12.28125 Z M 3.703125 -6.625"/></g></g></g><g fill-opacity="1" fill="#2e2e2e"><g transform="translate(199.673918, 90.710445)"><g><path d="M 7.5 -13.9375 C 9.101562 -13.9375 10.398438 -13.59375 11.390625 -12.90625 C 12.390625 -12.21875 13.015625 -11.242188 13.265625 -9.984375 C 13.285156 -9.828125 13.21875 -9.75 13.0625 -9.75 L 11.828125 -9.75 C 11.710938 -9.75 11.640625 -9.8125 11.609375 -9.9375 C 11.054688 -11.695312 9.6875 -12.578125 7.5 -12.578125 C 6.195312 -12.578125 5.109375 -12.09375 4.234375 -11.125 C 3.359375 -10.15625 2.921875 -8.722656 2.921875 -6.828125 C 2.921875 -4.941406 3.347656 -3.507812 4.203125 -2.53125 C 5.066406 -1.5625 6.128906 -1.078125 7.390625 -1.078125 C 8.648438 -1.078125 9.679688 -1.484375 10.484375 -2.296875 C 11.296875 -3.109375 11.703125 -4.160156 11.703125 -5.453125 L 11.703125 -5.65625 L 7.71875 -5.65625 C 7.59375 -5.65625 7.53125 -5.71875 7.53125 -5.84375 L 7.53125 -6.828125 C 7.53125 -6.953125 7.59375 -7.015625 7.71875 -7.015625 L 13.265625 -7.015625 C 13.390625 -7.015625 13.453125 -6.953125 13.453125 -6.828125 L 13.453125 -0.1875 C 13.453125 -0.0625 13.390625 0 13.265625 0 L 12.1875 0 C 12.070312 0 12.007812 -0.0625 12 -0.1875 L 11.796875 -1.953125 C 11.660156 -1.734375 11.453125 -1.484375 11.171875 -1.203125 C 10.898438 -0.921875 10.609375 -0.679688 10.296875 -0.484375 C 9.992188 -0.285156 9.582031 -0.109375 9.0625 0.046875 C 8.539062 0.210938 7.988281 0.296875 7.40625 0.296875 C 5.59375 0.296875 4.097656 -0.332031 2.921875 -1.59375 C 1.753906 -2.863281 1.171875 -4.609375 1.171875 -6.828125 C 1.171875 -9.046875 1.757812 -10.785156 2.9375 -12.046875 C 4.125 -13.304688 5.644531 -13.9375 7.5 -13.9375 Z M 7.5 -13.9375"/></g></g></g><g fill-opacity="1" fill="#2e2e2e"><g transform="translate(216.645044, 90.710445)"><g><path d="M 12.671875 -13.65625 C 12.804688 -13.65625 12.875 -13.609375 12.875 -13.515625 C 12.875 -13.484375 12.859375 -13.460938 12.828125 -13.453125 L 7.5 -4.578125 L 7.5 -0.1875 C 7.5 -0.0625 7.4375 0 7.3125 0 L 5.953125 0 C 5.816406 0 5.75 -0.0625 5.75 -0.1875 L 5.75 -4.578125 L 0.421875 -13.453125 C 0.410156 -13.460938 0.40625 -13.484375 0.40625 -13.515625 L 0.40625 -13.5625 C 0.445312 -13.625 0.503906 -13.65625 0.578125 -13.65625 L 2.015625 -13.65625 C 2.179688 -13.65625 2.3125 -13.585938 2.40625 -13.453125 L 6.625 -6.421875 L 10.859375 -13.453125 C 10.953125 -13.585938 11.082031 -13.65625 11.25 -13.65625 Z M 12.671875 -13.65625"/></g></g></g></svg>