<?xml version="1.0" encoding="UTF-8"?>
<svg id="Capa_1" data-name="Capa 1" xmlns="http://www.w3.org/2000/svg" viewBox="0 0 841.89 253.9" width="120" height="auto">
  <defs>
    <style>
      .cls-1 {
        fill: #8b8b8c;
        stroke-width: 1.5px;
      }
    </style>
  </defs>
  <path class="cls-1" d="m815.15,160.95c1.69,0,1.85.34,1.85,2.19,0,16.64-15.63,30.75-27.89,30.75-7.91,0-13.45-5.04-13.45-12.27,0-12.1,16.3-20.68,39.49-20.68m-51.6-54.8c-7.06,2.86-7.9,4.88-4.54,11.77l3.53,7.06c2.35,4.88,5.55,4.88,13.45,1.35,9.25-4.21,16.98-6.05,24.38-6.05,12.27,0,15.63,8.23,15.8,16.98,0,1.84-.17,2.18-1.68,2.18-45.21,4.88-63.2,17.32-63.2,43.87,0,21.86,16.14,32.61,33.11,32.61,8.57,0,19.67-2.69,28.23-12.61,2.36-2.69,3.87-2.02,4.37,1.68l.34,3.36c.5,3.7,1.51,4.37,6.05,4.37h10.59c5.89,0,7.91-1.17,7.91-5.04,0-2.69-1.69-8.57-1.69-16.31v-55.47c0-29.24-18.8-38.15-42.02-38.15-10.08,0-20.68,2.69-34.62,8.4m-40.84,12.11c-4.88,1.34-5.72,2.69-5.72,10.59v74.8c0,8.24.67,9.08,7.73,9.08h9.25c7.23,0,7.9-.84,7.9-9.08v-78.33c0-10.42-1.75-12.23-8.4-10.26l-10.76,3.2Zm-425.44-49.93c-6.39-3.02-9.08-2.18-11.94,4.21l-61.19,130.95c-3.03,6.55-1.01,9.24,7.06,9.24h12.11c5.88,0,7.06-1.17,9.75-7.56l6.39-14.97c1.17-2.52,1.51-2.69,3.02-2.69h39.33c4.71,0,4.88.17,5.38,2.86l2.69,14.8c1.01,5.55,1.69,7.56,9.25,7.56h12.27c7.23,0,8.75-1.68,6.9-9.41l-26.22-122.88q-1.18-5.04-8.57-9.08l-6.22-3.03Zm50.93,32.78v102.53c0,8.24.67,9.08,7.73,9.08h9.25c7.23,0,7.9-.84,7.9-9.08v-93.62c0-7.73-1.1-9.45-6.39-11.94l-8.57-4.03c-7.07-3.2-9.92-1.18-9.92,7.06m-54.8,15.47l8.4,44.37c.34,1.35-.33,2.69-2.69,2.69h-25.05c-2.01,0-2.52-.67-2.01-2.02l20.17-45.21c.5-1.01,1.01-.84,1.18.17m131.28,31.43c13.12.16,19.67,7.9,19.67,22.86s-7.06,23.54-17.99,23.54-18.66-9.42-18.66-24.03,6.05-22.7,16.98-22.36m19.34,96.81c0,8.24.67,9.08,7.9,9.08h8.07c7.07,0,7.73-.84,7.73-9.08v-107.07c0-8.57-.17-9.25-6.72-10.59l-7.9-1.52c-4.71-1.17-6.9.51-6.9,5.39,0,3.36-.67,4.03-2.35,2.68-6.73-5.54-15.97-7.73-24.04-7.73-21.86,0-35.3,16.98-35.3,44.38s14.63,45.55,36.47,45.55c7.23,0,15.98-2.36,20.68-5.55,1.68-1.18,2.36-1.01,2.36.67v33.78Zm90.26-96.98v24.04c0,15.3-5.72,22.86-17.15,22.86-9.41,0-14.12-6.89-14.12-20.67v-30.76c0-6.39-.84-7.74-5.55-8.91l-8.74-2.02c-5.89-1.51-8.41.67-8.41,7.23v36.98c0,24.53,11.6,39.33,31.09,39.33,9.25,0,18.33-3.87,22.87-10.93,1.01-1.85,1.18-.34,1.18.34v2.52c0,3.7,1.68,4.87,5.71,4.87h6.56c8.74,0,9.41-.67,9.41-9.08v-55.97c0-8.41-.5-9.08-7.9-9.08h-7.23c-7.23,0-7.73.67-7.73,9.25m146.74,55.8v-34.11c0-12.95,7.66-17.34,20.34-20.52,5.89-1.34,6.56-2.52,6.56-9.58v-12.94c0-3.03-.84-4.21-3.7-4.21-7.56,0-19.67,5.21-23.03,17.82-.5,1.68-1.68,2.53-1.68.51v-7.23c0-4.04-1.51-4.88-6.89-4.04l-6.56,1.18c-8.41,1.68-8.91,2.19-8.91,10.76v62.36c0,8.24.67,9.08,7.9,9.08h8.07c7.23,0,7.9-.84,7.9-9.08m76.99-127.08c0-7.9-5.88-14.46-14.46-14.46-14.29,0-26.22,14.29-26.22,31.6,0,5.89,1,9.25,2.69,9.25,3.02,0,7.9-8.07,22.86-11.1,6.73-1.34,15.13-4.87,15.13-15.3m-148.25,76.83c8.4,0,14.79,4.37,15.97,10.59.17,1.34-.17,2.35-1.51,2.52l-33.28,2.18c-1.18,0-1.52-.67-1.35-2.35,1.01-7.73,9.25-12.94,20.18-12.94m-18.16,30.92l47.91-3.03c6.21-.33,7.39-1.17,7.39-6.89,0-25.39-12.44-38.15-37.14-38.15-26.4,0-41.86,15.13-41.86,41.18,0,24.38,15.14,38.49,41.02,38.49,11.76,0,22.69-2.86,30.08-7.74,6.22-4.03,6.72-6.05,2.35-10.08l-6.22-5.55c-2.01-2.02-3.53-2.02-6.89.17-7.06,4.2-14.12,5.54-21.01,5.54s-15.14-4.7-17.15-11.09c-.51-1.35-.68-2.69,1.51-2.86"/>
  <path class="cls-1" d="m11.79,140.08c0-3.26-2.64-5.9-5.9-5.9S0,136.81,0,140.08s2.64,5.89,5.89,5.89,5.9-2.64,5.9-5.89m63.13,64.14c-4.28,0-7.76,3.47-7.76,7.75s3.48,7.76,7.76,7.76,7.75-3.48,7.75-7.76-3.47-7.75-7.75-7.75m-35.11-123.2c2.48,0,4.5-2.01,4.5-4.5s-2.02-4.49-4.5-4.49-4.5,2.01-4.5,4.49,2.01,4.5,4.5,4.5m89.88-61.99c2.74,0,4.96-2.22,4.96-4.96s-2.22-4.96-4.96-4.96-4.95,2.22-4.95,4.96,2.22,4.96,4.95,4.96M53.54,59.57c5.27,0,9.55-4.27,9.55-9.55s-4.27-9.54-9.55-9.54-9.54,4.27-9.54,9.54,4.27,9.55,9.54,9.55M214.16,24.23c2.94,0,5.33-2.38,5.33-5.33s-2.38-5.33-5.33-5.33-5.33,2.38-5.33,5.33,2.38,5.33,5.33,5.33m-53.58-2.8c5.92,0,10.71-4.79,10.71-10.72s-4.79-10.71-10.71-10.71-10.71,4.79-10.71,10.71,4.79,10.72,10.71,10.72m49.75,94.63c-13.79,1.75-24.15-6.08-24.52-18.55,0,0-1.38-12.63,6.16-25.88,4.77-9.55-5.86-20.19-17.1-8.2-1.46,1.07-2.79,3.65-4.98,2.5-2.41-1.2-1.17-4.95-2.14-7.84-1.04-3.1-5.23-5.93-7.48-2.92-1.17,1.56.46,3.08-1.42,3.08-1.71,0-5.68-4.76-7.83-5.86-11.06-5.56-21.1.72-28.14,8.2-1.98,1.97-1.44-2.5-4.27-2.5-1.71,0-4.74,1.47-4.74,5.23,0,2.36.9,4.3-.97,5.82-2.7,1.06-3.55-1.54-4.62-2.49-12.57-12.92-26.4.3-21.02,8.91,1.4,3.15,3.91,6.02,6.41,8.9,2.33,2.69,6.06,5.57,7.12,8.2,2.46,6.03-.07,13.33-2.5,18.17-2.27,4.55-9.14,13.05-13.17,15.67-3.32,2.16-6.88,2.53-8.56,5.7-1.76,3.35-3.32,18.74,1.42,22.09,1.88,1.32,5.96,1.49,8.2,2.14,4.1,1.2,8.17,3.7,11.76,4.64,3.37.87,8.59.69,10.74.57.73-.04,1.48-.07,2.22-.04,14.48.7,25.8,13.46,24.14,28.45-1.29,11.59-10.54,20.21-21.97,22.41-10.91,2.1-20.69-7.81-25.33-13.3,0,0-1.2-1.3-1.86-1.88-2.83-2.71-6.67-4.38-10.89-4.37-5.83.01-10.21,3.03-13.62,7.85-6.04,7.83-15.5,12.87-26.15,12.87-18.22,0-32.99-14.77-32.99-32.99,0-10.84,5.23-20.46,13.3-26.48.27-.36,16.32-11.64-.86-30.09l-.18-.21c-.59-.64-1.18-1.24-1.82-1.83-.18-.2-.37-.39-.56-.58-.71-.71-1.46-1.39-2.22-2.03-2.5-2.09-4.65-4.59-6.24-7.43-1.28-2.28-2.25-4.76-2.88-7.4-.07-.31-.14-.61-.2-.9-.46-2.25-.61-4.55-.52-6.85,0-1.13.07-2.25.21-3.4.21-6.9,5.87-12.43,12.82-12.43,2.99,0,5.74,1.02,7.92,2.73l.03.02c.16.13.32.27.47.39l.02.02c.14.12.28.24.4.36l.04.04c.15.14.29.28.41.42,2.2,2.31,3.54,5.42,3.54,8.86l-.02.15c-.01.86-.11,1.73-.3,2.6l-2.44,15.42-.31,2.07c-.05.34-.06.69-.04,1.04.09,1.15.6,2.19,1.41,2.93l.12.11.15.12.22.16.04.04c.26.16.53.31.82.43h.03s.23.1.23.1l.17.05.18.05c.13.02.27.05.39.07h.02c.14.02.29.03.44.04h.02c.14,0,.28,0,.43-.01h.03c2.08-.14,3.85-1.71,4.15-3.86.02-.06,3.68-28.92,35.37-49.34,9.87-6.36,14.48-18.46,14.48-30.19v-5.49c0-6.38,5.18-11.56,11.56-11.56,5.39.7,8.6,3.89,9.66,7.57.63,1.79.64,3.74.02,5.53-.45,1.6-1.3,3.11-2.55,4.37l-9.44,9.32c-1.5,1.5-1.5,3.91,0,5.41,1.49,1.49,3.9,1.49,5.4.01l1.04-1.55c.1-.17.19-.35.3-.52,9.35-20.1,33.26-28.98,53.47-19.75,11.13,5.49,23.31,6.13,34.29,2.71,23.4-7.3,48.29,5.74,55.6,29.15,7.4,23.69-6.56,51.98-30.5,55.03"/>
</svg>