<?xml version="1.0" encoding="UTF-8"?>
<svg id="Layer_1" data-name="Layer 1" xmlns="http://www.w3.org/2000/svg" viewBox="0 0 789 217" width="140" height="auto">
  <defs>
    <style>
      .cls-1 {
        fill: #8c8c8c;
      }

      .cls-1, .cls-2, .cls-3 {
        stroke-width: 0px;
      }

      .cls-2 {
        fill: #fff;
      }

      .cls-3 {
        fill: #c69f41;
      }
    </style>
  </defs>
  <path class="cls-2" d="m789,139v78c-226.36,0-452.71,0-679.38-.34.95-2.19,2.2-4.04,3.89-6.52.75-.09,2.5-.29,4.57-.52v-7.35c2.45-.2,4.55-.36,7.36-.59-3.07-6.8-5.98-13.25-9.27-20.52,12.66,6.1,25.71,8.48,33.66,6.46,15.34-3.9,24.82-14.62,30.85-28.26,10.57-23.89,10.29-49.27,8.72-74.89,9.8-.21,11.71-9.75,17.42-15.33-4.42.4-8.63,1.2-12.38,2.99-3.57,1.7-6.64,4.43-10.14,6.84v-13.28c4.49,1.49,6.22-1.36,8.82-3.94,3.22-3.19,4.29-10.17,12.08-8.19-.82-2.73-1.66-5.41-3.43-7.12-5.11-4.91-10.43-9.63-15.96-14.06-15.77-12.62-30.95-26.22-50.83-32.4h654c0,34.44,0,68.75-.35,103.36-1.26-7.76-4.22-15.04-12.96-16.22-7.47-1.01-15.48-.86-22.83.73-11.01,2.4-10.85,3.13-6.9,13.33.22.57.4,1.16.6,1.73,5.56-1.47,10.8-3.41,16.21-4.15,7.48-1.02,10.27,1.42,9.66,9.22-3.61,0-7.28-.24-10.89.07-3.71.32-7.39,1.09-11.06,1.81-4.99.98-8.68,3.93-9.33,8.95-.81,6.28-.97,13.14,5.47,16.84,3.94,2.26,8.79,4.04,13.22,4.02,4.35-.02,8.68-2.59,13.06-4.06.04.36.21,1.73.41,3.37h15.68m-411.17-51.15c-5.17-.39-10.34-.78-15.42-1.16-.34,2.16-.55,3.48-.8,5.05-8.37-6.8-20.1-7.42-28.05-2.95-11.12,6.26-13.25,23.96-8.59,34.47,1.88,4.25,5.26,8.66,9.16,11.02,9.43,5.73,18.93,4.18,27.53-2.89,1.34,12.5-7.26,15.69-16.28,14.16-5.49-.93-10.76-3.16-16.3-4.85-1.4,3.65-2.86,7.43-4.32,11.24.63.5.96.85,1.36,1.06,10.41,5.38,21.58,6.87,32.9,4.79,11.85-2.17,18.97-9.05,18.98-23.01.01-15.33-.01-30.66-.16-46.93m-131.94,36.59c-2.05,4.58-4.11,9.15-6.53,14.56,3.15,0,5.47-.35,7.65.06,7.56,1.42,12.26-1.27,13.97-8.91.32-1.42.68-3.04,1.59-4.07,1.15-1.3,2.86-2.91,4.36-2.95,10.15-.26,20.3-.13,30.38-.13,1.99,4.59,3.77,8.98,5.82,13.23.54,1.13,1.89,2.58,2.93,2.64,4.89.28,9.8.12,15.15.12-.39-1.53-.47-2.34-.79-3.05-4.46-9.68-8.98-19.32-13.43-29-5.2-11.31-10.42-22.62-15.49-33.99-3.52-7.91-3.42-7.7-12.17-8.06-4.38-.18-6.64,1.05-8.5,5.24-8.01,17.96-16.47,35.72-24.94,54.3m421.66.66c-7.45,2.92-11.52.34-11.55-7.38-.03-10.1,0-20.19,0-30.37h-16.99c0,11.31-.75,22.34.21,33.22.97,10.98,3.04,16.76,15.76,19.22,7.01,1.35,13.66-.49,18.8-7.06.19,2.59.31,4.2.44,6h15.46v-51.34h-16.68c0,9.36-.04,18.34.02,27.32.03,4.19-.99,7.81-5.46,10.39m-153.11,8.86c9.58,8.86,19.4,7.52,29.35.56.19,1.54.37,2.94.53,4.2h15.32v-51.46h-15.64c0,8.87.16,17.49-.09,26.1-.08,2.86-.83,5.86-1.97,8.49-2.06,4.77-6.63,4.75-10.69,3.95-3.52-.69-4.51-3.78-4.31-7.35.24-4.15.05-8.33.05-12.5v-18.67h-17c0,10.91-.39,21.56.18,32.16.25,4.71,2.44,9.31,4.27,14.51m92.24-61.95c-2.72-.39-3.93.56-3.74,3.52.23,3.74.06,7.51.06,11.63h-9v12.92h9c0,3.98-.13,7.61.03,11.22.22,5.1.35,10.24,1.08,15.28,1.01,6.93,9.6,12.88,18.66,13.41q9.04.53,10.28-8.4c.19-1.37.61-2.71,1.05-4.6-2.53,0-4.5-.11-6.46.02-4.63.31-7.09-2.75-7.43-6.39-.62-6.71-.18-13.52-.18-20.84h12.68v-12.93h-12.82v-14.85c-4.34,0-8.29,0-13.2,0m-135.8,16.06c-14.23,6.66-17.12,23.47-13.09,35.27,6.74,19.71,31.52,19.66,44.37,11.54.89-.56,1.86-2.31,1.6-3.13-1.07-3.35-2.6-6.56-4.06-10.06-7.74,4.03-15.24,8.68-22.85,1.5-3.98-3.76-4.73-14.78-1.49-18.85,7.61-9.53,16.08-5.29,24.36-.52.89-2.12,1.65-3.75,2.26-5.44,2.77-7.6,2.62-7.73-5.24-10.5-8.4-2.95-16.73-2.79-25.87.19m117.11,30.44v-53.1h-15.75v73.28h15.75v-20.18m-182,15.85c0-7.33-.02-14.66,0-21.99.02-6.73,3.12-10.37,9.67-11.35,3.7-.55,7.4-1.02,11.43-1.58-.51-4.49-1-8.83-1.49-13.14-7.93-1.23-14.57.76-20.38,6.71-.2-2.35-.34-4.04-.47-5.59h-15.47v51.59c4.76,0,9.23-.16,13.69.05,3.05.15,3.18-1.56,3.01-4.71m318.98-47.29c-2.63,1.65-5.26,3.29-7.87,4.92-.12-1.54-.24-3.13-.35-4.57h-15.49v51.26h16.73c0-9.63-.02-18.92.01-28.21.02-4.45,1.93-7.59,6.51-8.58,4.41-.96,8.84-1.79,13.2-2.67v-13.56c-4.21.47-8.06.91-12.74,1.43m-276.98,44.38v-44.18h-16.72v51.41h16.72v-7.23m-17-64.79v11.09h16.67v-15.72c-4.77,0-9.23.16-13.68-.05-3.04-.14-3.16,1.56-3,4.69Z"/>
  <path class="cls-1" d="m134.53,0c20.35,6.19,35.53,19.78,51.3,32.4,5.53,4.43,10.85,9.15,15.96,14.06,1.77,1.7,2.6,4.38,3.43,7.12-7.8-1.98-8.86,4.99-12.08,8.19-2.6,2.58-4.34,5.42-8.82,3.94v13.28c3.49-2.41,6.57-5.14,10.14-6.84,3.74-1.78,7.95-2.58,12.38-2.99-5.71,5.57-7.62,15.11-17.42,15.33,1.57,25.62,1.85,51-8.72,74.89-6.03,13.64-15.51,24.36-30.85,28.26-7.95,2.02-21-.36-33.66-6.46,3.28,7.27,6.19,13.72,9.27,20.52-2.81.22-4.91.39-7.36.59v7.35c-2.08.24-3.83.44-4.57.52-1.68,2.48-2.94,4.33-4.35,6.52-3.85.34-7.54.34-11.83-.02-1.47-2.36-2.35-4.37-3.31-6.56-3.39.02-7.13.22-5.23-5.5.26-.78-1.41-2.63-2.58-3.33-1.1-.67-2.72-.48-4.38-.71,2.92-6.24,5.66-12.09,8.18-17.46-7.31,2.06-14.07,5.32-20.97,5.64-16.44.78-29.14-7.08-37.94-20.67-9.6-14.82-12.86-31.76-13.96-49.02-.74-11.5-.14-23.08-.14-34.7-6.21-.92-15.09-9.8-15.57-16.68,7.37,3.92,16.52,3.52,21.3,12.87v-12.39c-3.46-2.58-6.01-4.18-8.18-6.2-2.03-1.89-3.91-4.07-5.34-6.43-.56-.92.27-2.69.63-4.24-.2-.23-.56-.29-1.27-.31-3.01,1.06-5.04,4.65-8.57,2.04,0,0,0-.5.32-.88,1.82-2.51,2.99-4.99,4.88-6.69,6.7-6.02,13.81-11.59,20.46-17.67,11.18-10.21,23.76-18.22,37.35-24.71,2.84-1.35,5.98-2.05,8.99-3.05,4.69,0,9.38,0,14.68.33,5.85,1.15,6.5,5.2,6.61,9.34,7.04.63,7,.64,9.83,7.28.34.79,1.18,1.62,1.98,1.92,2.81,1.05,5.7,1.88,9.82,3.19-.43-2.91-.51-5.34-1.17-7.61-2.05-7.05-1.19-10.3,4.24-14.45h16.53m30.72,37.66c1.08.41,2.16.82,3.24,1.23.1-.23.21-.47.31-.7-1.06-.6-2.11-1.2-3.6-2.39-2.84-5.29-5.82-1.72-10.02-.35,4.09.68,6.92,1.16,10.08,2.21m-123.46-.67c1.73-.07,4.23-4.99,5.14.77,1.44-.35,3-.73,4.56-1.09-3.56-4.78-7.78-4.89-11.54.03l-.39,1.07c.5-.23,1.01-.46,2.23-.78M8.81,73.39l-1.31-.13c.29.45.58.89,1.28,1.9,2.23,3,3.69,7.29,9.26,5.27-.31-6.02-5.51-5.14-9.23-7.05M142.26,12.38c-2.49-.6-4.97-1.2-7.75-1.87,1.18,7.34,3.13,8.06,10.84,4.89-.78-1.13-1.59-2.28-1.6-3.38,1.44.34,2.87.69,5.12,1.22-1.19-1.97-1.85-3.05-2.94-4.86-1.13,1.43-2.01,2.54-3.66,4M29.75,38c.7-.05,2-.24,2.03-.13.98,4.14,3.13,1.2,4.03.35,1.81-1.7,3.13-3.93,4.57-5.82-1.72-.43-3.44-1.16-5.18-1.21-1.53-.04-3.54.22-4.49,1.18-1.22,1.23-1.58,3.3-2.76,5.33-.13.36-.26.72-.39,1.07.5-.23,1.01-.46,2.19-.77m28.47,34l-3.83-4.89c.38-.27.76-.54,1.14-.82.99,1.12,1.99,2.23,3.04,3.41.5-2.07.92-3.81,1.32-5.47h-13.68c2,7.23,6.72,10.17,13.58,7.76,7.28-1,14.55-2.26,21.86-2.88,3.89-.33,7.87.44,13.1.8-1.96-2.82-3.25-4.68-4.84-6.95-2.03,4.4-3.96,6.64-7.96,4.02-.45-.3-1.49-.39-1.82-.09-3.21,2.88-4.07.57-4.62-2.64-.41,1.34-.34,2.72-.69,2.83-2.39.79-4.9,1.21-7.3,1.95-2.87.89-5.68,1.98-9.29,2.97M127.19,20.83c.4,1.54.81,3.08,1.21,4.62-.39-.36-.78-.73-1.17-1.09,2.49-1.91,4.98-3.82,7.95-6.09-1.62-.71-3.17-1.91-4.7-1.89-1.48.02-2.94,1.3-5.2,2.42,2.46-3.78,1.32-8.88,7.06-8.75-1.63-.89-2.89-2.17-4.04-2.08-1.69.13-3.39,1.1-4.92,1.98-.64.37-1.28,1.5-1.2,2.2.49,4.29,1.19,8.56,1.13,13.19-.43,3.33-1.14,6.35-4.68,8.05-.85.41-.86,2.56-1.26,3.91.43.12.85.23,1.28.35.21-1.07.41-2.13.68-3.51.45,1.01.78,1.73,1.13,2.52.7-1.13,1.37-2.22,2.07-3.35.34.74.65,1.41,1.3,2.83.13-2.43.22-4.03.33-6.18.75,1.96,1.3,3.38,2.22,5.78.47-2.08.69-3.1,1.03-4.61.59,1.16.86,1.69,1.13,2.23.45-.39.9-.78,1.35-1.16-1.24-1.22-2.57-2.35-3.68-3.68-.9-1.08-1.54-2.39-1.66-3.56.45-1.3.9-2.6,1.73-4.21,0,0,.33-.37.9.08m-31.17,155.19s-.04-.04-.47.61c6.36,6.73,8.14,6.95,14.61,1.7,3.18-2.58,8.65-4.5,3.1-9.89-.22-.21.49-1.21.37-1.74-.27-1.19-.62-3.19-1.26-3.32-2.32-.5-4.79-.54-7.19-.44-6.66.27-11.51,4.04-16.8,9.16,2.84,1.47,5.26,2.72,7.63,3.93M159.73,20.98c1.33-.85,2.66-1.7,4.27-2.73-3.02-1.76-5.79-3.37-8.49-4.95-2.77,9.69-4.09-3.92-6.45.54,2.1,3.45-.98,4.41-3.54,5.55.94,1.84,1.88,3.7,2.97,5.83-4.72,3.54-9.04,6.79-13.77,10.34,2.65.63,4.65,1.11,6.27,1.49.71-1.63,1.08-3.67,1.73-3.77,2.97-.43,6.03-.26,9.04-.46.56-.04,1.08-.8,1.99-1.56,0,0,.32-.37,1.03-.31.91-.06,1.83-.11,2.84-.18-.45-1.03-.78-1.78-.97-2.22,3.51.22,6.82.42,10.23.63v-5.12c-6.04-1.38-11.33,6.01-17.78,1.18,2.57-1.11,5.27-1.33,7.92-1.83.55-.1.92-1.2,1.74-2.16,0,0,.32-.37.98-.31m4.09,34.41c-.44-.04-.88-.08-1.31-.13.29.45.58.89,1.28,1.99-.3,5.2-.6,10.41-.9,15.67,3.92-2.45,8.21-5.09,12.45-7.79,2.06-1.31,5.44-2.44,5.81-4.17.95-4.46,4.47-4.51,7.37-5.74,2.98-1.27,6.06-2.3,10.53-3.97-6.09-1.3-10.74-2.3-15.38-3.29.66.79,1.32,1.58,1.98,2.37-2.11.99-4.59,1.56-6.25,3.06-4.68,4.22-10.06,2.68-15.57,1.99M48.25,29.29s.37.33.12.94h6.2c-.38.95-.7,1.74-1.26,3.14,5.09-2.21,8.64-1.26,10.58,3.64.85-.8,1.5-1.41,2.39-2.24.49,1.14.84,1.96,1.41,3.28,1.19-1.23,2.21-2.28,3.22-3.32-.53-.69-.76-1.14-1.11-1.44-4.32-3.76-13.01-4.56-9.35-13.79.06-.15-1.14-.63-1.46-1.14-.37-.6-.78-1.82-.53-2.03.61-.53,1.62-.96,2.4-.85,2.3.31,4.78,1.71,6.78,1.17,2.09-.57,3.69-2.91,5.98-4.88-2.37-.79-3.47-1.16-5.23-1.75,1.53-.78,2.31-1.18,3.17-1.62-3.17-1.63-6.95,2.85-10.75-1.36-.27.41-.81,1.44-1.54,2.32-3.29,3.97-4.56,4.52-9.05,4.21-.45-.03-.98.24-1.39.5-2.21,1.37-4.39,2.79-7.76,4.94,2.45-.43,3.55-.62,4.73-.82-.05,1.12-.08,1.89-.13,2.85,1.62-.66,2.83-1.16,4.65-1.91-1,1.94-1.62,3.12-1.95,3.77,3.2.65,6.18,1.25,9.16,1.85-.18.91-.36,1.83-.54,2.74-5.76-1.17-11.53-2.33-17.28-3.49-.24,1.65-.44,3.04-.71,4.91,3.17,0,6.07,0,9.28.38m48.13,128.41c5.25.19,10.61,3.19,16.43-.68,1.98,1.06,3.97,2.11,6.01,3.2,4.34-5.99,8.21-7.3,14.04-4.04,2.31-3.82,4.64-7.66,7.13-11.78h-62.8c3.14,8.8,9.97,12.3,19.19,13.3m12.48-57.93c1.23-.21,2.46-.42,3.74-.64,1.15-7.1,4.97-10.55,11.12-8.91,3.25.87,4.82.39,6.44-2.35.78-1.32,2.37-2.88,3.71-2.99,1.91-.15,4.97.33,5.69,1.59,3.44,6.04-3.66,18.45-10.7,19.55-4.76.75-9.47,1.79-15.53,2.96,12.05,0,22.83.13,33.59-.21,1.08-.03,2.91-2.94,2.95-4.55.28-9.48.14-18.97.14-29.41-2.99-.18-6.32-1.39-8.66-.36-11.38,5.04-22.26,4.11-33.1-1.3-.22-.11-.61.11-1.19.24-.57,1.08-1.21,2.3-1.61,3.07-3-.55-6.03-2.09-8.31-1.35-10.7,3.48-21.04,4.35-31.57-.73-4.27-2.06-8.54,1.22-8.55,5.86-.02,7.5-.05,15,.02,22.49.02,2.44-.18,5.25,3.57,5.25,16.58,0,33.15,0,48.97,0-.36-2.41-.84-5.64-1.35-8.81,0,0-.11.07.64.59m9.64,11.23h-60.45c.38,2.56.49,4.54.98,6.4,1.88,7.09,3.74,14.19,5.98,21.17.45,1.41,2.52,3.24,3.88,3.28,10.15.28,20.3.15,30.99.15-1.24-2.83-1.82-6.94-3.51-7.46-4.83-1.49-3.12-4.81-3.24-7.63-.11-2.85-1.02-6.76.44-8.32,2.24-2.38,6.08-3.74,9.46-4.44,4.26-.88,7.14,1.24,8.02,5.91,1.09,5.79,2.54,11.52,4.07,18.31-2.52-.3-5.59-.66-9.02-1.06-.31.65-1.14,2.34-2.27,4.7h26.27c11.22,0,11.45.07,14.7-10.73,1.94-6.45,3.01-13.15,4.59-20.27h-30.89m-96.05,27.94c1.19,4.24,2.05,8.6,3.64,12.68,3.37,8.64,6.37,17.67,15.46,22.4,6.77,3.53,13.66,5.61,21.38,1.68-11.42-12.12-17.88-26.49-22.48-41.84-3.72-12.42-4.86-25.15-4.48-38.06.04-1.54.07-3.87-.84-4.52-4.67-3.36-9.64-6.3-14.98-9.68-.41,8.16-1.35,15.45-1.01,22.67.53,11.32,1.93,22.59,3.32,34.67m125.56,32.55c-.95,1.4-1.91,2.8-3.46,5.09,8.27.64,15.14,1.54,21.86-3.26,7.87-5.63,11.61-13.64,14.56-22.13,7.75-22.31,8.28-45.29,5.56-68.92-4.7,2.91-9.38,5.55-13.71,8.66-1.15.83-1.62,3.1-1.75,4.76-.5,6.25-.43,12.55-1.12,18.77-2.26,20.67-8.56,39.87-21.94,57.05m-20.2-113.25c7.98,1.1,15.96,2.2,24.3,3.35-2.23-4.94-1.22-9.13,1.55-12.57,4.65-5.77,10.98-3.13,16.9-2.09.07-.43.15-.86.22-1.29-8.68-3.26-17.35-6.52-26.09-9.8-1.32,5.22-4.55,4.99-8.01,3.24-2.93-1.49-4.75-1.25-7.66.96-3.66,2.78-8.63,3.84-14.48,6.23.2,3.24.52,8.34.81,13.1,4.65-.64,8.25-1.14,12.47-1.14m-71.57-7.54c.23,3.63.46,7.27.72,11.26,4.25-.94,8.79-2.2,13.41-2.88,4.61-.68,9.31-.78,14.45-1.17,2.57-4.93.46-12.65-4.94-15.85-.95-.56-2.28-.96-2.72-1.81-1.86-3.57-4.85-2.82-7.2-1.5-4.44,2.49-7.63,2.03-9.48-2.37-4.23,1.36-8.1,2.47-11.88,3.85-3.61,1.32-7.12,2.92-10.68,4.4q14.26.68,18.32,6.07m13.16,125.37c-7.16,4.23-14.89,4.71-23.24,3.2,13.24,10.24,32.13,9.25,44.61-2.14-3.81-3.31-7.6-6.59-11.21-9.72-3.34,2.84-6.47,5.5-10.16,8.66m-16.27-73.48c-.86-.5-1.73-1-2.83-1.64-1.13,23.38,10.23,56.32,25.02,66.92,2.65-2.66,2.75-2.99.64-5.4-10.83-12.34-16.18-27.08-18.96-42.96-.97-5.52-2.08-11.02-3.86-16.93m98.98,30.07c3.68-10.17,5.81-20.54,3.87-31.71-1.73,1.21-3.33,2.57-3.86,4.27-.77,2.45-.78,5.15-1.11,7.74-2.27,17.94-7.4,34.75-19.32,48.88-1.85,2.19-2.3,4.32,1.19,5.96,9-9.94,14.81-21.72,19.23-35.15m-2.77,52.37c3.77-1.59,7.55-3.18,11.32-4.77-.14-.39-.29-.77-.43-1.16-13.44,2.96-24.18-1.48-32.49-12.07-4.06,3.6-7.83,6.94-12.03,10.65,4.43,2.08,8.13,4.26,12.12,5.57,6.68,2.21,13.5,4.23,21.5,1.77M33.21,55.96c-2.4-2.11-4.78-4.24-7.21-6.31-.74-.63-1.74-1.69-2.42-1.55-4.32.88-8.59,2.04-14.28,3.46,2.07.93,2.63,1.18,3.19,1.43,4.03,1.73,9.09,2.46,11.9,5.37,8.71,9.02,19.75,14.11,30.5,20.05-.21-1.45-.77-3.13-1.61-3.28-4.69-.84-7.39-3.63-9.19-7.85-1.98-4.63-.86-8.5,2.71-11.97-4.56.25-8.64.47-13.58.65m148.79,13.83c-.09-1.54-.19-3.07-.33-5.31-4.43,2.71-8.22,4.92-11.86,7.34-.84.56-1.62,1.8-1.72,2.79-.54,5.21-.85,10.45-1.27,16.13,1.49-.63,2.55-1.01,3.55-1.5,7.69-3.78,14.16-8.33,11.63-19.45m-142.97,6.81c-1.01-1.87-1.62-4.2-3.13-5.5-2.92-2.52-6.34-4.45-10.18-7.05-.26,5.25-.61,9.96-.64,14.67,0,1.18.73,2.82,1.66,3.49,4.17,2.97,8.53,5.67,13.74,9.07-.52-5.37-.93-9.59-1.46-14.67m54.29,82.51c-7.25-.64-12.84-3.8-16.94-10.04-1.88-2.87-3.84-7.04-9.98-4.13,6.47,8.6,12.82,17.04,19.03,25.29,5.06-3.68,9.18-6.67,13.46-9.79-1.71-.32-3.29-.62-5.57-1.34m-4.23,32.51c-1.03,2.2-2.05,4.4-3.06,6.56,3.31,2.26,8.83.64,10.11,5.99-1.98.97-3.58,1.76-5.17,2.54.13.3.26.6.39.9h6.48c.41-7.1.68-13.83,1.22-20.53.35-4.31-1.85-6.09-5.12-6.84-1.58,3.85-2.99,7.29-4.82,11.37m25.04-9.18c-.11-.98-.22-1.96-.32-2.81-4.87,1.3-6.4,4.53-5.87,9.33.69,6.19,1,12.42,1.49,18.87,1.4-.39,2.76-.77,4.11-1.14-.9-1.73-1.78-3.41-3.04-5.82,3.93-.49,7.11-.89,10.64-1.34-2.26-5.65-4.43-11.06-7.02-17.1m-8.26-52.38c1.43,1.74,2.87,3.47,4.88,5.92v-8.51c-.52.77-.91,1.34-.55.82-2-2.35-3.8-6.44-6.54-7.22-4.19-1.19-7.57,2.95-8.51,8.94,3.33,0,6.59,0,10.72.05M30.5,50.29c2.13,1.23,4.3,3.58,6.37,3.49,5.55-.25,11.05-1.54,16.47-2.4-4.56-8.7-12.7-.91-17.89-3.97-1.61,1-2.93,1.81-4.95,2.88m113.34,19.07c-1.09-.08-2.19-.16-4.24-.32,16.28,7.3,21.42,2.46,21.72-4.18-4.73-.25-9.41-.49-14.1-.73,0,.37-.02.75-.02,1.12h3c-.62,2.17-1.1,3.85-1.51,5.3-1.56-.27-2.92-.51-4.85-1.2M17.46,38.04c-3.61,3.06-7.22,6.11-11.32,9.58,8.16-1.53,15.46-2.9,23.55-4.42.01-.17.12-1.47.13-1.6-2.42-1.09-4.06-1.83-5.91-2.66-1.42,1.01-3.38,2.41-5.34,3.82-.22-2.08.34-3.4.79-4.75.07-.2-.3-.69-.57-.82-.17-.08-.55.24-1.34.85m138.2,13.76c3.66.67,7.31,1.4,10.99,2,4.47.73,8.63.23,12.44-3.71-5.4-.74-10.25-1.88-15.09-1.89-2.78,0-5.57,1.83-8.34,3.6m-27.44,43.88c-.5.45-.99.91-1.65,1.51.1,1.8.22,4.25.35,6.68,6.74-.8,11.98-7.54,10.39-11.86-2.43-.17-4.22-.29-5.76-.4.4,1.33.81,2.69,1.52,5.09q-3.6-3.69-4.85-1.02m-11.19,67.99c.24,2.63.47,5.25.83,9.3,5.17-5.56,9.22-9.91,13.59-14.61-6.03-1.59-8.6-.15-9.52,4.24-.54,2.59-2.14,3.1-4.9,1.07m21.53-91.17c-7.56-4.48-14.88.28-22.33.37,7.26,3.21,14.49,2.71,22.33-.37M122.04,4.07c.97.5,1.9,3.39,2.93.05,3.93,4.06,7.89-1.21,11.85.02-5.33-1.87-10.67-3.17-16.31-1.31-6.06,2-7.36,5.79-3.76,11.61,1.05-3.73-1.94-9.19,5.29-10.37m-40.01,31.34c.7-3.52,3.06-7.33-1.67-9.94-4.31,6.46-3.48,11.7,2.72,15.12-.4-1.64-.73-3.01-1.05-5.18m34.35,34.57c1.97-.46,3.93-.92,5.92-1.39-1.33-1.78-2.63-3.51-4.22-5.63-3.17,2.34-6.24,4.62-9.32,6.9.25.45.5.91.74,1.36,2.02-.4,4.04-.8,6.88-1.24M83.33,14.14c2.59,3.33,2.44-.58,3.94-.96q-7.56-5.99-11.07-3.79c.44.63,1.08,1.23,1.31,1.95.5,1.58,3.99,3.57,5.82,2.8m107.69,62.35c-.7,1.32-1.4,2.63-2.25,4.21,6.76,1.22,8.14-4,11.39-6.59-.21-.39-.41-.77-.62-1.16-2.66,1-5.31,2-8.52,3.54m-29.61-17.48c-1.51-1.73-3.03-3.45-4.69-5.35-1.63,1.82-2.79,3.12-3.93,4.39,2.82,3.35,5.3,6.31,8.62.96M73.61,4.16c1.98.51,4.69,2.09,5.82,1.33,5.06-3.38,8.39-1.62,11.72,3.96-1.76-7.24-11.82-9.62-17.54-5.3m6.94,14.18c-3.07-.16-6.18-4.59-8.86-.37.93,1.26,1.77,2.39,2.74,3.71.27-.08,1.14-.33,1.68-.49.49,1.6.9,2.93,1.22,3.98,1.02-2.1,2-4.11,3.21-6.83m-10.3,53.71c-.23.15-.48.28-.67.48-.06.06.03.42.12.45,2.9.93,5.81,1.85,8.73,2.72.38.11.85-.06,1.57-.14-.12-1.57-.23-2.97-.37-4.81-3.15.46-5.88.86-9.39,1.3m-47.27-11.36l-7.95-4.18c.8,2.81,1.81,4.79,3.36,6.15,1.69,1.48,4.14,3.43,4.59-1.97m25.08-2.26c-.57.71-1.14,1.43-1.77,2.23,6.67,2,8.21.75,7.01-6.33-1.79,1.37-3.25,2.49-5.24,4.1M100.09,15.67c-1.75-.7-3.49-1.4-4.96-1.99-.71,1.74-1.18,2.86-1.7,4.13,2.38.87,4.75,1.73,7.58,2.76-.15-1.76-.25-3.05-.93-4.91m91.3,43.48c.4-.57.81-1.15,1.39-1.98-8.01,1.25-8.79,1.83-7.8,7.05,2.35-1.71,4.21-3.06,6.41-5.07m-4.63-16.89c-1.15-1.59-2.3-3.17-3.08-4.25-2.39,1.77-3.76,2.78-5.5,4.07,1.31.62,2.65,1.36,4.07,1.9,1.45.55,2.98.9,4.68,1.4.09-.74.19-1.62-.17-3.12M54.36,86.18c-.12-1.7-.24-3.4-.35-5.1-.76.11-1.53.22-2.29.32.71,5.97,1.42,11.94,2.13,17.91.3-.04.61-.07.91-.11-.23-4.07-.46-8.14-.4-13.03m97.64,10.13l.25,3.03c.36.01.73.03,1.09.04.56-5.69,1.11-11.38,1.67-17.06-.63-.11-1.26-.22-1.9-.33-.31,1.5-.81,3-.9,4.51-.18,2.98-.14,5.98-.21,9.81m-28.51,7.48c1.19-2.29,3.17-4.83-.34-6.58-1.04-.52-2.88.59-4.85,1.07,2.04,2.55,3.25,4.06,5.2,5.51m70.48-61.31c-1.79-1.34-3.57-2.69-5.75-4.33.14,2.22.05,3.8.41,5.28.19.78,1.43,2.05,1.74,1.93,1.45-.56,2.75-1.53,3.6-2.89m-15.84-3.63c-.55-1.41-1.09-2.83-1.22-3.15-3.08.27-4.95.44-7.23.64,1.78,2.21,2.56,5.96,6.01,1.89.14-.17,1.13.37,2.44.62m-26.11,39.76c.04.16.04.34.12.48.06.11.25.27.29.25,2.77-1.63,5.54-3.27,9.39-5.55-3.61.55-5.91.67-8.04,1.34-.8.25-1.2,1.78-1.76,3.49m-48.63-51.66c.79-.09,1.58-.17,3.16-.35-1.47-2.01-2.59-3.54-3.7-5.07-.33.17-.66.35-.98.52.24,1.58.48,3.16,1.52,4.89m70.37,7.13c.66-.44,1.32-.88,2.4-1.59-2.4-.55-4.02-.92-6.97-1.59,2.05,1.43,3,2.09,4.57,3.19m-38.57,55.06h-2.68c0,.26,0,.52,0,.79,1.06-.08,2.12-.16,2.68-.79m31.58-56.98l-.22,1.49c.45.02.9.04,1.35.05-.12-.5-.24-1-1.12-1.55m18.07,3.94c.26,0,.51-.02.77-.02-.04-.27-.07-.53-.11-.8-.38.12-.76.25-.66.82m-96.39,26.1c-.34.17-.68.34-1.02.51.46.02.92.04,1.02-.51m23.07,74.59c.34-.17.68-.34,1.02-.51-.46-.02-.92-.04-1.02.51m48.65-98.52c.46.04.91.08,1.37.12-.35-.23-.7-.47-1.37-.12M4.76,49.83c.34-.2.67-.41,1.01-.61-.45.02-.9.04-1.01.61Z"/>
  <path class="cls-2" d="m0,53.47c3.53,2.14,5.56-1.45,8.74-2.35.53.11.94.32.94.32-.2,1.38-1.03,3.14-.47,4.07,1.43,2.36,3.31,4.54,5.34,6.43,2.17,2.01,4.72,3.61,8.18,6.2v12.39c-4.77-9.35-13.92-8.95-21.3-12.87.48,6.88,9.36,15.76,15.57,16.68,0,11.62-.6,23.2.14,34.7,1.1,17.26,4.36,34.2,13.96,49.02,8.8,13.59,21.5,21.45,37.94,20.67,6.9-.33,13.66-3.58,20.97-5.64-2.52,5.37-5.25,11.21-8.18,17.46,1.66.23,3.28.04,4.38.71,1.17.7,2.84,2.55,2.58,3.33-1.91,5.72,1.83,5.52,5.23,5.5.96,2.19,1.84,4.2,2.85,6.56-32.15.36-64.43.36-96.87.36V53.47Z"/>
  <path class="cls-1" d="m789,138.53c-5.15.47-10.29.47-15.68.47-.2-1.64-.37-3.01-.41-3.37-4.38,1.47-8.72,4.04-13.06,4.06-4.43.02-9.28-1.77-13.22-4.02-6.45-3.69-6.28-10.56-5.47-16.84.65-5.01,4.34-7.97,9.33-8.95,3.67-.72,7.35-1.5,11.06-1.81,3.62-.31,7.28-.07,10.89-.07.62-7.8-2.18-10.24-9.66-9.22-5.41.74-10.65,2.68-16.21,4.15-.2-.57-.38-1.16-.6-1.73-3.95-10.2-4.11-10.94,6.9-13.33,7.35-1.6,15.36-1.75,22.83-.73,8.73,1.18,11.69,8.46,12.96,16.69.35,11.53.35,22.89.35,34.71m-23.89-22.12c-.62.19-1.3.27-1.85.59-2.07,1.22-4.6,2.15-5.94,3.94-.67.9.38,4.55,1.46,5,2.44,1.01,5.69,1.7,8.06.9,4.52-1.53,5.75-5.81,6.1-10.75-2.45,0-4.73,0-7.82.33Z"/>
  <path class="cls-2" d="m71.53,0c-2.54,1-5.68,1.7-8.52,3.05-13.59,6.48-26.18,14.5-37.35,24.71-6.65,6.08-13.76,11.65-20.46,17.67-1.89,1.69-3.06,4.18-4.88,6.44C0,34.73,0,17.46,0,0h71.53Z"/>
  <path class="cls-2" d="m117.53,0c-4.96,4.16-5.83,7.4-3.77,14.45.66,2.26.74,4.7,1.17,7.61-4.12-1.31-7.01-2.14-9.82-3.19-.8-.3-1.64-1.13-1.98-1.92-2.83-6.64-2.8-6.65-9.83-7.28-.1-4.14-.76-8.19-6.14-9.34,9.87-.33,19.89-.33,30.38-.33Z"/>
  <path class="cls-1" d="m377.9,88.32c.08,15.8.1,31.13.09,46.46,0,13.96-7.13,20.84-18.98,23.01-11.32,2.08-22.48.59-32.9-4.79-.4-.21-.73-.56-1.36-1.06,1.46-3.81,2.92-7.59,4.32-11.24,5.54,1.7,10.81,3.93,16.3,4.85,9.02,1.52,17.63-1.67,16.28-14.16-8.6,7.08-18.1,8.62-27.53,2.89-3.9-2.37-7.28-6.78-9.16-11.02-4.66-10.51-2.53-28.21,8.59-34.47,7.95-4.47,19.68-3.86,28.05,2.95.25-1.56.46-2.89.8-5.05,5.08.38,10.25.77,15.49,1.63m-34.89,33.2c2.79.91,5.59,2.62,8.37,2.58,7.13-.1,11.24-5.54,9.62-16.12-.81-5.28-3.79-8.53-8.18-8.97-6.59-.66-10.76,1.56-12.72,6.81-2.04,5.49-1.31,10.55,2.9,15.7Z"/>
  <path class="cls-1" d="m245.99,124.06c8.38-18.21,16.84-35.97,24.85-53.93,1.87-4.19,4.12-5.42,8.5-5.24,8.75.36,8.65.16,12.17,8.06,5.06,11.37,10.29,22.68,15.49,33.99,4.45,9.68,8.97,19.33,13.43,29,.32.7.41,1.52.79,3.05-5.34,0-10.26.16-15.15-.12-1.05-.06-2.39-1.51-2.93-2.64-2.05-4.25-3.83-8.64-5.82-13.23-10.07,0-20.23-.12-30.38.13-1.5.04-3.21,1.65-4.36,2.95-.91,1.03-1.27,2.65-1.59,4.07-1.71,7.64-6.41,10.33-13.97,8.91-2.18-.41-4.51-.06-7.65-.06,2.43-5.41,4.48-9.99,6.62-14.94m39.11-28.8c-1.45-3.6-2.9-7.19-4.52-11.23-3.64,8.62-7,16.58-10.42,24.69h21.03c-2.03-4.53-3.87-8.66-6.08-13.46Z"/>
  <path class="cls-1" d="m667.92,125.01c4.1-2.5,5.12-6.12,5.09-10.31-.06-8.98-.02-17.95-.02-27.32h16.68v51.34h-15.46c-.13-1.8-.25-3.41-.44-6-5.15,6.57-11.79,8.41-18.8,7.06-12.72-2.45-14.79-8.24-15.76-19.22-.96-10.88-.21-21.91-.21-33.22h16.99c0,10.17-.02,20.27,0,30.37.02,7.72,4.1,10.3,11.92,7.29Z"/>
  <path class="cls-1" d="m514.19,133.68c-1.57-4.93-3.76-9.53-4.01-14.24-.57-10.6-.18-21.25-.18-32.16h17v18.67c0,4.17.18,8.34-.05,12.5-.2,3.57.79,6.66,4.31,7.35,4.05.8,8.63.82,10.69-3.95,1.14-2.63,1.88-5.63,1.97-8.49.25-8.61.09-17.24.09-26.1h15.64v51.46h-15.32c-.16-1.26-.33-2.65-.53-4.2-9.95,6.96-19.77,8.3-29.61-.84Z"/>
  <path class="cls-1" d="m607.16,72c4.43,0,8.39,0,12.73,0v14.85h12.82v12.93h-12.68c0,7.32-.45,14.13.18,20.84.34,3.65,2.8,6.71,7.43,6.39,1.96-.13,3.93-.02,6.46-.02-.44,1.89-.86,3.23-1.05,4.6q-1.26,8.93-10.28,8.4c-9.06-.54-17.65-6.49-18.66-13.41-.73-5.04-.86-10.18-1.08-15.28-.16-3.61-.03-7.24-.03-11.22h-9v-12.92h9c0-4.12.18-7.89-.06-11.63-.19-2.97,1.02-3.91,4.22-3.52Z"/>
  <path class="cls-1" d="m471.29,88.02c8.74-2.94,17.08-3.1,25.48-.15,7.86,2.76,8,2.9,5.24,10.5-.61,1.68-1.37,3.31-2.26,5.44-8.28-4.77-16.76-9.01-24.36.52-3.24,4.07-2.5,15.09,1.49,18.85,7.61,7.18,15.11,2.54,22.85-1.5,1.46,3.51,2.99,6.71,4.06,10.06.26.82-.71,2.57-1.6,3.13-12.85,8.12-37.63,8.17-44.37-11.54-4.03-11.8-1.14-28.61,13.48-35.31Z"/>
  <path class="cls-1" d="m588,119v19.69h-15.75v-73.28h15.75v53.6Z"/>
  <path class="cls-1" d="m406,134.83c.16,2.66.04,4.37-3.01,4.23-4.46-.21-8.93-.05-13.69-.05v-51.59h15.47c.13,1.54.27,3.24.47,5.59,5.81-5.95,12.45-7.94,20.38-6.71.49,4.31.98,8.65,1.49,13.14-4.03.55-7.74,1.02-11.43,1.58-6.55.98-9.65,4.62-9.67,11.35-.02,7.33,0,14.66,0,22.47Z"/>
  <path class="cls-1" d="m725.39,87.01c4.27-.48,8.12-.91,12.33-1.38v13.56c-4.36.88-8.8,1.72-13.2,2.67-4.57.99-6.49,4.13-6.51,8.58-.04,9.29-.01,18.59-.01,28.21h-16.73v-51.26h15.49c.11,1.45.23,3.04.35,4.57,2.6-1.63,5.24-3.28,8.28-4.97Z"/>
  <path class="cls-1" d="m448,131.92v6.74h-16.72v-51.41h16.72v44.67Z"/>
  <path class="cls-1" d="m431,66.16c-.16-2.65-.04-4.35,3-4.21,4.44.21,8.9.05,13.68.05v15.72h-16.67c0-3.63,0-7.36,0-11.56Z"/>
  <path class="cls-2" d="m119,111h30.39c-1.58,7.11-2.66,13.82-4.59,20.27-3.25,10.8-3.48,10.73-14.7,10.73h-26.27c1.14-2.35,1.96-4.05,2.27-4.7,3.43.4,6.49.76,9.02,1.06-1.53-6.79-2.98-12.51-4.07-18.31-.88-4.66-3.76-6.78-8.02-5.91-3.39.7-7.23,2.05-9.46,4.44-1.46,1.55-.56,5.47-.44,8.32.11,2.83-1.6,6.14,3.24,7.63,1.69.52,2.27,4.63,3.51,7.46-10.69,0-20.84.13-30.99-.15-1.36-.04-3.43-1.87-3.88-3.28-2.24-6.98-4.1-14.08-5.98-21.17-.5-1.87-.6-3.84-.98-6.4h60.95Z"/>
  <path class="cls-2" d="m108.25,99.12c.48,3.23.96,6.47,1.32,8.87-15.82,0-32.39,0-48.97,0-3.75,0-3.55-2.81-3.57-5.25-.07-7.5-.04-14.99-.02-22.49.01-4.64,4.28-7.92,8.55-5.86,10.53,5.08,20.87,4.21,31.57.73,2.28-.74,5.31.8,8.31,1.35.4-.76,1.04-1.99,1.61-3.07.58-.13.97-.35,1.19-.24,10.84,5.41,21.72,6.34,33.1,1.3,2.34-1.03,5.66.17,8.66.36,0,10.44.14,19.93-.14,29.41-.05,1.61-1.88,4.52-2.95,4.55-10.76.34-21.54.21-33.59.21,6.06-1.17,10.77-2.22,15.53-2.96,7.05-1.1,14.15-13.51,10.7-19.55-.72-1.26-3.78-1.74-5.69-1.59-1.33.11-2.93,1.67-3.71,2.99-1.62,2.74-3.19,3.21-6.44,2.35-6.15-1.64-9.97,1.81-11.12,8.91-1.27.22-2.5.43-3.78.13,3-4.13,3.6-15.56-.19-18.27-2.5-1.79-8-2.47-10.21-.9-4.2,2.98-3.1,8.78-3.18,13.59-.02,1.04.56,2.2,1.16,3.11,2.14,3.26,4.34,6.49,6.69,9.6.38.5,1.67.3,1.67.3,1.34-2.9,2.41-5.24,3.49-7.58m-18.93,8.88c2.91-.58,5.82-1.15,8.72-1.73-1.95-4.23-3.8-7.48-4.97-10.96-1.32-3.94-3.94-6.12-7.72-5.17-4.7,1.18-7.47-.68-10.59-3.75-4.14-4.07-6.6-2.99-7.69,2.79-1.13,5.97,2.85,13.86,8.71,15.98,4.03,1.46,8.42,1.92,13.55,2.83Z"/>
  <path class="cls-2" d="m22.27,138.55c-1.21-11.68-2.61-22.96-3.14-34.28-.34-7.22.6-14.51,1.01-22.67,5.33,3.38,10.31,6.32,14.98,9.68.91.66.89,2.98.84,4.52-.37,12.91.76,25.65,4.48,38.06,4.6,15.34,11.06,29.71,22.48,41.84-7.71,3.92-14.61,1.84-21.38-1.68-9.09-4.73-12.09-13.76-15.46-22.4-1.59-4.08-2.45-8.45-3.82-13.07Z"/>
  <path class="cls-2" d="m148.26,171.24c13.13-16.93,19.43-36.13,21.69-56.79.68-6.22.62-12.52,1.12-18.77.13-1.66.6-3.93,1.75-4.76,4.33-3.12,9.01-5.75,13.71-8.66,2.72,23.63,2.19,46.62-5.56,68.92-2.95,8.5-6.7,16.51-14.56,22.13-6.72,4.8-13.58,3.9-21.86,3.26,1.55-2.28,2.51-3.69,3.72-5.34Z"/>
  <path class="cls-2" d="m127.5,57.99c-3.91.25-7.52.74-12.16,1.38-.3-4.77-.61-9.86-.81-13.1,5.86-2.4,10.83-3.45,14.48-6.23,2.91-2.21,4.73-2.45,7.66-.96,3.46,1.75,6.7,1.98,8.01-3.24,8.74,3.28,17.42,6.54,26.09,9.8-.07.43-.15.86-.22,1.29-5.92-1.05-12.25-3.69-16.9,2.09-2.77,3.44-3.78,7.63-1.55,12.57-8.34-1.15-16.32-2.25-24.6-3.6Z"/>
  <path class="cls-2" d="m56.11,50.32q-3.93-5-18.19-5.68c3.55-1.48,7.06-3.08,10.68-4.4,3.78-1.38,7.65-2.5,11.88-3.85,1.85,4.4,5.04,4.86,9.48,2.37,2.35-1.32,5.35-2.07,7.2,1.5.44.85,1.77,1.25,2.72,1.81,5.4,3.2,7.51,10.92,4.94,15.85-5.13.39-9.83.49-14.45,1.17-4.62.68-9.15,1.95-13.41,2.88-.25-3.99-.49-7.62-.84-11.64Z"/>
  <path class="cls-2" d="m96.02,156.96c-8.85-.26-15.69-3.76-18.83-12.56h62.8c-2.49,4.11-4.82,7.96-7.13,11.78-5.83-3.26-9.7-1.95-14.04,4.04-2.04-1.09-4.03-2.14-6.57-3.36-.68-.29-.81-.41-.72-.78-.87-3.16-1.95-6.09-3.55-10.42-5.13,2.74-9.81,5.25-14.85,7.95,1.09,1.3,1.97,2.36,2.86,3.4.01-.02.03-.05.03-.05Z"/>
  <path class="cls-2" d="m47.93,28.92h-8.96c.27-1.88.47-3.27.71-4.91,5.75,1.16,11.51,2.33,17.28,3.49.18-.91.36-1.83.54-2.74-2.98-.6-5.95-1.2-9.16-1.85.34-.65.95-1.83,1.95-3.77-1.82.75-3.03,1.24-4.65,1.91.04-.96.08-1.74.13-2.85-1.18.2-2.28.4-4.73.82,3.37-2.15,5.56-3.57,7.76-4.94.41-.26.94-.53,1.39-.5,4.48.31,5.76-.24,9.05-4.21.73-.88,1.27-1.91,1.54-2.32,3.8,4.22,7.58-.26,10.75,1.36-.85.44-1.64.84-3.17,1.62,1.76.59,2.86.95,5.23,1.75-2.29,1.97-3.89,4.31-5.98,4.88-1.99.55-4.48-.85-6.78-1.17-.77-.11-1.79.32-2.4.85-.25.21.16,1.43.53,2.03.32.51,1.52.99,1.46,1.14-3.67,9.23,5.03,10.03,9.35,13.79.35.31.59.75,1.11,1.44-1.01,1.04-2.03,2.09-3.22,3.32-.57-1.32-.92-2.14-1.41-3.28-.89.83-1.54,1.44-2.39,2.24-1.94-4.9-5.49-5.85-10.58-3.64.56-1.41.88-2.19,1.26-3.14-2.11,0-4.16,0-5.86-.46.47-.82.6-1.18.73-1.54-.5.23-1.01.46-1.51.69Z"/>
  <path class="cls-2" d="m69.68,175.83c3.41-2.91,6.55-5.58,9.88-8.41,3.61,3.13,7.4,6.41,11.21,9.72-12.49,11.38-31.37,12.38-44.61,2.14,8.35,1.51,16.08,1.03,23.52-3.45Z"/>
  <path class="cls-2" d="m53.5,102.79c1.41,5.71,2.52,11.21,3.49,16.73,2.79,15.89,8.14,30.62,18.96,42.96,2.12,2.41,2.01,2.74-.64,5.4-14.79-10.6-26.14-43.54-25.02-66.92,1.1.64,1.96,1.14,3.2,1.83Z"/>
  <path class="cls-2" d="m152.06,133.06c-4.36,13.04-10.17,24.82-19.17,34.75-3.49-1.65-3.04-3.77-1.19-5.96,11.92-14.13,17.05-30.94,19.32-48.88.33-2.59.33-5.29,1.11-7.74.54-1.7,2.13-3.07,3.86-4.27,1.94,11.17-.19,21.54-3.92,32.11Z"/>
  <path class="cls-2" d="m148.92,185.09c-7.58,2.41-14.4.38-21.08-1.83-3.99-1.32-7.69-3.5-12.12-5.57,4.19-3.72,7.96-7.05,12.03-10.65,8.31,10.58,19.05,15.03,32.49,12.07.14.39.29.77.43,1.16-3.77,1.59-7.55,3.18-11.75,4.83Z"/>
  <path class="cls-2" d="m33.64,55.98c4.51-.2,8.6-.42,13.15-.67-3.58,3.48-4.69,7.34-2.71,11.97,1.81,4.22,4.5,7.01,9.19,7.85.84.15,1.41,1.83,1.61,3.28-10.75-5.95-21.79-11.03-30.5-20.05-2.81-2.91-7.87-3.64-11.9-5.37-.56-.24-1.12-.5-3.19-1.43,5.7-1.42,9.96-2.58,14.28-3.46.68-.14,1.68.92,2.42,1.55,2.43,2.07,4.81,4.2,7.64,6.33Z"/>
  <path class="cls-1" d="m108.23,99.15c-1.06,2.31-2.14,4.65-3.47,7.55,0,0-1.29.19-1.67-.3-2.35-3.11-4.55-6.34-6.69-9.6-.6-.91-1.18-2.08-1.16-3.11.08-4.81-1.02-10.61,3.18-13.59,2.21-1.57,7.71-.89,10.21.9,3.79,2.71,3.19,14.14-.19,18.01-.33.25-.22.18-.21.15Z"/>
  <path class="cls-2" d="m164.07,55.92c5.25.16,10.63,1.7,15.31-2.51,1.66-1.49,4.14-2.07,6.25-3.06-.66-.79-1.32-1.58-1.98-2.37,4.65,1,9.3,1.99,15.38,3.29-4.47,1.67-7.55,2.7-10.53,3.97-2.89,1.23-6.41,1.28-7.37,5.74-.37,1.73-3.75,2.86-5.81,4.17-4.24,2.7-8.53,5.34-12.45,7.79.3-5.26.6-10.47.88-16.16-.01-.48.31-.86.31-.86Z"/>
  <path class="cls-2" d="m158.38,21.61c-.45.64-.82,1.73-1.37,1.83-2.65.49-5.35.72-7.92,1.83,6.46,4.83,11.74-2.56,17.78-1.18v5.12c-3.4-.21-6.71-.41-10.23-.63.19.44.52,1.18.97,2.22-1.02.06-1.93.12-3.32-.12-.92-.34-1.36-.38-1.79-.42.29.45.58.89.88,1.34-.54.43-1.05,1.2-1.62,1.23-3.01.2-6.07.02-9.04.46-.65.09-1.02,2.14-1.73,3.77-1.62-.39-3.62-.86-6.27-1.49,4.73-3.55,9.05-6.8,13.77-10.34-1.09-2.14-2.03-3.99-2.97-5.83,2.56-1.14,5.64-2.1,3.54-5.55,2.35-4.46,3.67,9.15,6.45-.54,2.7,1.57,5.47,3.19,8.49,4.95-1.61,1.03-2.94,1.88-4.72,2.43-.89-.34-1.33-.38-1.77-.42.29.45.58.89.88,1.34Z"/>
  <path class="cls-2" d="m182,70.25c2.53,10.66-3.94,15.21-11.63,18.99-1,.49-2.06.87-3.55,1.5.42-5.68.73-10.92,1.27-16.13.1-1,.88-2.23,1.72-2.79,3.64-2.42,7.42-4.62,11.86-7.34.14,2.24.23,3.78.33,5.78Z"/>
  <path class="cls-2" d="m39.09,77.03c.47,4.65.88,8.88,1.4,14.24-5.22-3.4-9.58-6.1-13.74-9.07-.94-.67-1.67-2.3-1.66-3.49.02-4.71.38-9.42.64-14.67,3.85,2.6,7.27,4.54,10.18,7.05,1.5,1.3,2.11,3.63,3.18,5.92Z"/>
  <path class="cls-2" d="m93.68,159.32c1.93.51,3.51.8,5.22,1.13-4.28,3.11-8.4,6.11-13.46,9.79-6.21-8.25-12.55-16.69-19.03-25.29,6.13-2.91,8.09,1.26,9.98,4.13,4.09,6.24,9.69,9.4,17.29,10.25Z"/>
  <path class="cls-2" d="m96.07,176.05c-2.42-1.25-4.84-2.5-7.68-3.97,5.28-5.12,10.14-8.89,16.8-9.16,2.4-.1,4.86-.06,7.19.44.64.14.99,2.13,1.26,3.32.12.54-.59,1.53-.37,1.74,5.55,5.4.08,7.31-3.1,9.89-6.47,5.25-8.24,5.03-13.98-1.99,4.6-.28,8.6.07,12.51-.38,2.06-.24,2.41-1.47,1.28-4.16-2.24-5.31-6.21-3.82-9.76-3.62-2.68.15-5.08,5.33-4.15,7.88Z"/>
  <path class="cls-2" d="m89.3,191.3c1.62-3.76,3.04-7.21,4.61-11.05,3.28.75,5.47,2.52,5.12,6.84-.54,6.71-.81,13.44-1.22,20.53h-6.48c-.13-.3-.26-.6-.39-.9,1.6-.78,3.19-1.57,5.17-2.54-1.28-5.36-6.8-3.74-10.11-5.99,1.01-2.16,2.04-4.36,3.28-6.88Z"/>
  <path class="cls-2" d="m114.34,182.75c2.38,5.73,4.55,11.14,6.81,16.78-3.54.44-6.71.84-10.64,1.34,1.26,2.41,2.13,4.09,3.04,5.82-1.35.38-2.71.75-4.11,1.14-.49-6.45-.8-12.68-1.49-18.87-.53-4.81,1-8.03,5.87-9.33.1.85.21,1.83.53,3.12Z"/>
  <path class="cls-2" d="m105.43,130.03c-3.69-.02-6.95-.02-10.28-.02.94-5.99,4.32-10.13,8.51-8.94,2.74.78,4.54,4.87,6.54,7.22-.35.52.03-.05.55-.82v8.51c-2.02-2.44-3.45-4.18-5.32-5.94Z"/>
  <path class="cls-2" d="m30.85,50.17c1.67-.94,2.99-1.75,4.6-2.75,5.2,3.06,13.34-4.74,17.89,3.97-5.42.86-10.92,2.15-16.47,2.4-2.07.09-4.24-2.25-6.02-3.61Z"/>
  <path class="cls-2" d="m144.12,69.59c1.65.46,3.01.7,4.57.97.42-1.46.89-3.14,1.51-5.3h-3c0-.37.02-.75.02-1.12,4.69.24,9.37.49,14.1.73-.3,6.64-5.44,11.48-21.72,4.18,2.06.15,3.15.24,4.52.54Z"/>
  <path class="cls-2" d="m124,24.99c-.63-4.28-1.33-8.54-1.82-12.83-.08-.7.56-1.83,1.2-2.2,1.53-.89,3.23-1.85,4.92-1.98,1.15-.09,2.41,1.18,4.04,2.08-5.74-.12-4.6,4.98-7.06,8.75,2.26-1.12,3.72-2.4,5.2-2.42,1.53-.02,3.08,1.19,4.7,1.89-2.97,2.27-5.46,4.18-7.95,6.09.39.36.78.73,1.17,1.09-.4-1.54-.81-3.08-1.66-5.07-.8-.57-1.16-.7-1.52-.83.23.5.46,1.01.69,1.51-.45,1.3-.9,2.6-1.65,3.89-.3,0-.26.02-.26.02Z"/>
  <path class="cls-2" d="m17.71,37.81c.54-.37.91-.7,1.09-.61.27.13.64.62.57.82-.45,1.36-1.01,2.68-.79,4.75,1.96-1.4,3.93-2.81,5.34-3.82,1.85.83,3.49,1.57,5.91,2.66-.01.12-.12,1.43-.13,1.6-8.09,1.52-15.4,2.89-23.55,4.42,4.1-3.47,7.71-6.53,11.57-9.82Z"/>
  <path class="cls-2" d="m155.65,51.42c2.78-1.39,5.56-3.22,8.35-3.22,4.85,0,9.69,1.15,15.09,1.89-3.81,3.94-7.97,4.44-12.44,3.71-3.67-.6-7.33-1.33-11-2.38Z"/>
  <path class="cls-2" d="m128.14,95.34q1.33-2.34,4.94,1.35c-.72-2.39-1.13-3.76-1.52-5.09,1.55.11,3.33.23,5.76.4,1.59,4.32-3.65,11.06-10.39,11.86-.13-2.44-.26-4.88-.35-6.68.66-.6,1.15-1.05,1.56-1.84Z"/>
  <path class="cls-2" d="m117.32,163.88c2.47,1.81,4.06,1.3,4.6-1.29.92-4.39,3.49-5.83,9.52-4.24-4.37,4.7-8.41,9.05-13.59,14.61-.36-4.05-.6-6.68-.54-9.09Z"/>
  <path class="cls-2" d="m58.94,71.94c-6.02,2.46-10.74-.47-12.73-7.71h13.68c-.4,1.66-.82,3.4-1.32,5.47-1.05-1.18-2.05-2.3-3.04-3.41-.38.27-.76.54-1.14.82,1.28,1.63,2.56,3.26,4.21,4.88.37-.01.34-.04.34-.04Z"/>
  <path class="cls-2" d="m58.98,71.99c2.85-.98,5.66-2.08,8.53-2.96,2.41-.74,4.91-1.16,7.3-1.95.35-.11.28-1.49.69-2.83.54,3.21,1.4,5.52,4.62,2.64.33-.3,1.37-.21,1.82.09,4,2.62,5.93.38,7.96-4.02,1.58,2.27,2.88,4.13,4.84,6.95-5.23-.36-9.21-1.13-13.1-.8-7.32.63-14.58,1.89-22.28,2.86-.42-.02-.39,0-.38.03Z"/>
  <path class="cls-2" d="m138.24,72.71c-7.53,2.86-14.76,3.36-22.02.15,7.45-.09,14.77-4.85,22.02-.15Z"/>
  <path class="cls-2" d="m121.67,4.06c-6.86,1.19-3.87,6.65-4.92,10.38-3.6-5.83-2.3-9.62,3.76-11.61,5.64-1.86,10.98-.56,16.31,1.31-3.96-1.23-7.92,4.04-11.85-.02-1.03,3.34-1.96.45-3.31-.06Z"/>
  <path class="cls-2" d="m82.02,35.81c.33,1.77.66,3.15,1.06,4.78-6.2-3.42-7.03-8.65-2.72-15.12,4.73,2.61,2.36,6.41,1.66,10.34Z"/>
  <path class="cls-2" d="m28.39,37.38c.73-1.71,1.1-3.78,2.32-5.02.95-.96,2.97-1.22,4.49-1.18,1.74.05,3.46.78,5.18,1.21-1.44,1.9-2.76,4.12-4.57,5.82-.9.85-3.05,3.79-4.03-.35-.03-.11-1.32.08-2.52-.01-.5-.15-.86-.47-.86-.47Z"/>
  <path class="cls-2" d="m123.95,24.95c.74,1.19,1.37,2.5,2.28,3.58,1.11,1.32,2.44,2.46,3.68,3.68-.45.39-.9.78-1.35,1.16-.27-.54-.55-1.07-1.13-2.23-.34,1.51-.57,2.53-1.03,4.61-.92-2.4-1.47-3.82-2.22-5.78-.12,2.15-.2,3.75-.33,6.18-.65-1.42-.96-2.08-1.3-2.83-.7,1.13-1.37,2.22-2.07,3.35-.36-.79-.68-1.51-1.13-2.52-.27,1.38-.47,2.44-.68,3.51-.43-.12-.85-.23-1.28-.35.4-1.35.41-3.5,1.26-3.91,3.53-1.7,4.25-4.72,5.02-8.23.34-.18.31-.2.29-.22Z"/>
  <path class="cls-2" d="m115.97,70c-2.43.42-4.45.82-6.47,1.22-.25-.45-.5-.91-.74-1.36,3.08-2.28,6.16-4.55,9.32-6.9,1.59,2.12,2.89,3.86,4.22,5.63-1.98.47-3.95.93-6.33,1.4Z"/>
  <path class="cls-2" d="m83,14.14c-1.5.77-4.99-1.22-5.49-2.8-.23-.73-.87-1.32-1.31-1.95q3.51-2.2,11.07,3.79c-1.5.38-1.35,4.29-4.27.96Z"/>
  <path class="cls-2" d="m142.96,11.96c.8,1.16,1.61,2.32,2.39,3.44-7.72,3.17-9.66,2.45-10.84-4.89,2.78.67,5.27,1.27,8.12,1.68.37-.19.33-.23.33-.23Z"/>
  <path class="cls-2" d="m191.3,76.22c2.93-1.27,5.59-2.27,8.24-3.27.21.39.41.77.62,1.16-3.25,2.59-4.63,7.81-11.39,6.59.84-1.58,1.55-2.9,2.53-4.48Z"/>
  <path class="cls-2" d="m161.55,59.33c-3.46,5.02-5.93,2.07-8.75-1.28,1.14-1.27,2.3-2.57,3.93-4.39,1.66,1.89,3.17,3.62,4.82,5.67Z"/>
  <path class="cls-2" d="m73.26,4.03c6.07-4.19,16.13-1.81,17.89,5.43-3.32-5.58-6.66-7.35-11.72-3.96-1.14.76-3.84-.83-6.17-1.46Z"/>
  <path class="cls-2" d="m9.07,73.92c3.47,1.39,8.66.51,8.97,6.53-5.57,2.02-7.03-2.28-9.28-5.71-.02-.44.3-.81.3-.81Z"/>
  <path class="cls-2" d="m80.44,18.69c-1.09,2.37-2.08,4.38-3.1,6.48-.32-1.06-.73-2.39-1.22-3.98-.54.16-1.42.41-1.68.49-.98-1.32-1.81-2.46-2.74-3.71,2.68-4.21,5.78.21,8.75.73Z"/>
  <path class="cls-2" d="m70.64,72.03c3.12-.42,5.84-.82,8.99-1.28.14,1.85.25,3.24.37,4.81-.73.07-1.19.25-1.57.14-2.92-.87-5.83-1.79-8.73-2.72-.09-.03-.18-.39-.12-.45.18-.2.44-.32,1.06-.5Z"/>
  <path class="cls-2" d="m22.99,61.1c-.45,4.99-2.91,3.05-4.6,1.56-1.55-1.36-2.57-3.34-3.36-6.15,2.65,1.39,5.3,2.78,7.96,4.59Z"/>
  <path class="cls-2" d="m48.33,58.18c1.72-1.37,3.18-2.48,4.97-3.85,1.2,7.09-.34,8.33-7.01,6.33.64-.8,1.21-1.52,2.04-2.48Z"/>
  <path class="cls-2" d="m100.38,15.95c.39,1.58.5,2.86.64,4.62-2.83-1.03-5.2-1.9-7.58-2.76.52-1.27.98-2.39,1.7-4.13,1.47.59,3.21,1.29,5.24,2.27Z"/>
  <path class="cls-2" d="m191.22,59.48c-2.03,1.68-3.89,3.03-6.24,4.74-.99-5.22-.21-5.8,7.8-7.05-.58.83-.99,1.4-1.56,2.3Z"/>
  <path class="cls-2" d="m186.99,42.57c.13,1.19.03,2.07-.06,2.81-1.7-.5-3.23-.85-4.68-1.4-1.42-.54-2.76-1.28-4.07-1.9,1.74-1.29,3.11-2.3,5.5-4.07.78,1.08,1.93,2.67,3.31,4.57Z"/>
  <path class="cls-2" d="m54.22,86.59c.09,4.48.32,8.55.55,12.62-.3.04-.61.07-.91.11-.71-5.97-1.42-11.94-2.13-17.91.76-.11,1.53-.22,2.29-.32.12,1.7.24,3.4.21,5.51Z"/>
  <path class="cls-2" d="m152.02,95.89c.06-3.41.02-6.41.2-9.39.09-1.52.59-3.01.9-4.51.63.11,1.26.22,1.9.33-.56,5.69-1.11,11.38-1.67,17.06-.36-.01-.73-.03-1.09-.04-.08-1.01-.17-2.02-.24-3.45Z"/>
  <path class="cls-2" d="m123.13,103.82c-1.58-1.48-2.79-2.99-4.83-5.54,1.97-.48,3.81-1.59,4.85-1.07,3.51,1.75,1.54,4.29-.02,6.61Z"/>
  <path class="cls-2" d="m40.39,36.38c3.31-4.6,7.54-4.49,11.09.28-1.56.37-3.12.75-4.55,1.1-.91-5.76-3.41-.84-5.66-.91-.52-.14-.88-.47-.88-.47Z"/>
  <path class="cls-2" d="m194.23,42.75c-1.1,1.09-2.4,2.06-3.85,2.62-.31.12-1.55-1.15-1.74-1.93-.36-1.48-.27-3.06-.41-5.28,2.18,1.64,3.96,2.98,5.99,4.59Z"/>
  <path class="cls-2" d="m177.78,38.84c-.95-.23-1.94-.77-2.08-.6-3.45,4.08-4.23.32-6.01-1.89,2.28-.2,4.14-.37,7.23-.64.13.33.67,1.74.86,3.14Z"/>
  <path class="cls-2" d="m111.89,156.89c-4.9,4-10.26,1-15.69.44-.18-.37-.2-.33.25-.33,5.26-.23,10.06-.45,14.87-.68.13.13.25.25.57.57Z"/>
  <path class="cls-2" d="m152.02,78.24c.57-1.33.97-2.86,1.77-3.11,2.13-.67,4.42-.79,8.04-1.34-3.85,2.29-6.61,3.93-9.39,5.55-.04.02-.24-.14-.29-.25-.07-.14-.08-.32-.13-.86Z"/>
  <path class="cls-2" d="m164.93,37.08c-2.84-.47-5.67-.95-9.76-1.63,4.2-1.37,7.19-4.94,10.05.81.03.45-.29.83-.29.83Z"/>
  <path class="cls-2" d="m103,26.88c-.64-1.66-.88-3.24-1.12-4.82.33-.17.66-.35.98-.52,1.12,1.53,2.23,3.06,3.7,5.07-1.58.17-2.37.26-3.56.27Z"/>
  <path class="cls-2" d="m143.01,12.02c.9-1.09,1.77-2.2,2.91-3.63,1.1,1.81,1.75,2.89,2.94,4.86-2.25-.54-3.68-.88-5.51-1.25-.39-.03-.36,0-.34.03Z"/>
  <path class="cls-2" d="m173.46,33.87c-1.26-.88-2.21-1.54-4.26-2.97,2.94.67,4.56,1.04,6.97,1.59-1.08.72-1.74,1.16-2.71,1.38Z"/>
  <path class="cls-2" d="m165.44,36.55c1.24.44,2.3,1.04,3.36,1.64-.1.23-.21.47-.31.7-1.08-.41-2.16-.82-3.4-1.52-.16-.29.16-.66.35-.83Z"/>
  <path class="cls-2" d="m135.45,89.42c-.81.35-1.87.43-2.93.51,0-.26,0-.52,0-.79.89,0,1.79,0,2.93.27Z"/>
  <path class="cls-2" d="m167.16,32.19c.5.52.62,1.02.74,1.52-.45-.02-.9-.04-1.35-.05.07-.5.15-.99.6-1.47Z"/>
  <path class="cls-2" d="m184.62,35.88c.14-.35.52-.47.9-.59.04.27.07.53.11.8-.26,0-.51.02-1.01-.2Z"/>
  <path class="cls-2" d="m88.64,62.49c-.28.26-.74.24-1.2.22.34-.17.68-.34,1.2-.22Z"/>
  <path class="cls-2" d="m40.91,36.9c-.34.42-.85.65-1.35.87.13-.36.26-.72.61-1.23.22-.16.59.17.75.36Z"/>
  <path class="cls-2" d="m111.36,136.51c.28-.26.74-.24,1.2-.22-.34.17-.68.34-1.2.22Z"/>
  <path class="cls-2" d="m28.91,37.9c-.35.42-.85.65-1.35.87.13-.36.26-.72.61-1.23.22-.16.59.17.75.36Z"/>
  <path class="cls-2" d="m160.34,37.98c.51-.06.86.18,1.21.41-.46-.04-.91-.08-1.21-.41Z"/>
  <path class="cls-2" d="m4.59,49.56c.28-.29.73-.32,1.18-.34-.34.2-.67.41-1.18.34Z"/>
  <path class="cls-2" d="m163.56,56.45c-.48-.29-.77-.73-1.06-1.18.44.04.88.08,1.44.39.13.26-.19.63-.38.79Z"/>
  <path class="cls-2" d="m8.56,74.45c-.48-.29-.77-.73-1.06-1.18.44.04.88.08,1.44.39.13.26-.19.63-.38.79Z"/>
  <path class="cls-2" d="m9.1,51.08c.19-.1.55-.04.75.19-.16.17-.58-.03-.75-.19Z"/>
  <path class="cls-2" d="m765.52,116.25c2.69-.16,4.97-.16,7.42-.16-.35,4.95-1.58,9.23-6.1,10.75-2.37.8-5.62.11-8.06-.9-1.08-.45-2.13-4.1-1.46-5,1.34-1.79,3.87-2.72,5.94-3.94.54-.32,1.23-.4,2.25-.75Z"/>
  <path class="cls-2" d="m342.74,121.25c-3.94-4.88-4.68-9.94-2.63-15.43,1.96-5.25,6.12-7.48,12.72-6.81,4.39.44,7.37,3.69,8.18,8.97,1.62,10.58-2.5,16.03-9.62,16.12-2.78.04-5.58-1.67-8.64-2.85Z"/>
  <path class="cls-2" d="m285.28,95.61c2.03,4.46,3.87,8.59,5.9,13.12h-21.03c3.43-8.12,6.78-16.07,10.42-24.69,1.63,4.04,3.07,7.63,4.71,11.57Z"/>
  <path class="cls-1" d="m88.87,108c-4.68-.91-9.07-1.37-13.1-2.83-5.86-2.12-9.84-10.01-8.71-15.98,1.09-5.78,3.55-6.86,7.69-2.79,3.12,3.07,5.89,4.93,10.59,3.75,3.78-.95,6.4,1.24,7.72,5.17,1.17,3.48,3.02,6.73,4.97,10.96-2.89.57-5.8,1.15-9.17,1.73m-19.78-14.87c1.95,4.49,3.23,9.56,8.7,10.53.39-3.79.79-7.65,1.2-11.65-1.43,1.05-2.81,2.06-4.94,3.62.35-2.02.55-3.14.83-4.76-1.54.64-2.62,1.08-3.7,1.53-.14-.26-.28-.53-.42-.79.95-1.04,1.91-2.09,2.86-3.13-.41-.34-.82-.67-1.23-1.01-1.12,1.62-2.25,3.24-3.3,5.67m16.54,8.76c-.67,1.29-1.34,2.58-2.39,4.59,4.11-.62,7.4-1.11,10.78-1.62-1.68-5.67-3.58-6.37-8.39-2.96Z"/>
  <path class="cls-1" d="m111.53,156.08c-5.02.47-9.82.69-15.09.94-1.35-1.04-2.23-2.1-3.31-3.41,5.04-2.7,9.72-5.21,14.85-7.95,1.6,4.33,2.69,7.26,3.55,10.42Z"/>
  <path class="cls-3" d="m48.09,29.1c.34-.42.85-.65,1.35-.87-.13.36-.26.72-.61,1.23-.22.16-.59-.17-.75-.36Z"/>
  <path class="cls-3" d="m153.56,31.45c-.48-.29-.77-.73-1.06-1.18.44.04.88.08,1.44.39.13.26-.19.63-.38.79Z"/>
  <path class="cls-3" d="m158.56,21.45c-.48-.29-.77-.73-1.06-1.18.44.04.88.08,1.44.39.13.26-.19.63-.38.79Z"/>
  <path class="cls-1" d="m96.05,176.04c-.91-2.53,1.49-7.72,4.17-7.87,3.55-.2,7.53-1.68,9.76,3.62,1.13,2.69.78,3.92-1.28,4.16-3.91.45-7.91.1-12.29.05-.42-.03-.38.01-.36.03Z"/>
  <path class="cls-3" d="m126.1,20.91c-.42-.34-.65-.85-.87-1.35.36.13.72.26,1.23.61.16.22-.17.59-.36.75Z"/>
  <path class="cls-2" d="m69.05,92.73c1.09-2.02,2.21-3.65,3.34-5.27.41.34.82.67,1.23,1.01-.95,1.04-1.91,2.09-2.86,3.13.14.26.28.53.42.79,1.08-.45,2.16-.89,3.7-1.53-.28,1.62-.48,2.75-.83,4.76,2.13-1.56,3.51-2.57,4.94-3.62-.41,4.01-.81,7.86-1.2,11.65-5.47-.97-6.75-6.03-8.74-10.93Z"/>
  <path class="cls-2" d="m85.85,101.65c4.58-3.15,6.48-2.46,8.16,3.21-3.38.51-6.67,1.01-10.78,1.62,1.05-2.01,1.72-3.3,2.62-4.84Z"/>
</svg>