<?xml version="1.0" encoding="UTF-8"?>
<svg id="Layer_1" data-name="Layer 1" xmlns="http://www.w3.org/2000/svg" viewBox="0 0 841.89 337.68" width="120" height="auto">
  <defs>
    <style>
      .cls-1 {
        fill: #fefefe;
      }

      .cls-1, .cls-2, .cls-3, .cls-4, .cls-5, .cls-6, .cls-7, .cls-8, .cls-9 {
        stroke-width: 0px;
      }

      .cls-2 {
        fill: #8c8c8c;
      }

      .cls-3 {
        fill: #21201c;
      }

      .cls-4 {
        fill: #f6f6f6;
      }

      .cls-5 {
        fill: #fff;
      }

      .cls-6 {
        fill: #fafafa;
      }

      .cls-7 {
        fill: #fefefd;
      }

      .cls-8 {
        fill: #f9f9f9;
      }

      .cls-9 {
        fill: #fbfbfb;
      }
    </style>
  </defs>
  <path class="cls-1" d="m530.9,337.68H0V0h841.89v337.68h-310.99m-439.16-75.66c.41.04.82.07,1.83.39,2.71,1.3,5.36,2.74,8.14,3.87,17.22,7,35.07,10.63,54.59,9.89,27.37-.15,52.33-8.27,75.4-22.71,9.31-5.83,13.95-13.89,13.9-25.14-.19-51.03-.08-102.07-.08-153.1,0-1.67,0-3.33,0-4.65-61.2-13.07-122.05-13.42-183.01-.06-.03.57-.1,1.17-.1,1.77,0,53.33,0,106.67-.02,160,0,5.57,2.22,10.25,5.98,13.98,3.66,3.64,7.71,7.01,12.03,9.82,3.52,2.29,7.69,3.6,11.59,5.26,0,0-.07.03-.25.68m364.69-37.95c-2.26,7.02-4.53,14.03-6.87,21.31h15.67c2.21-7.01,4.33-14,6.68-20.91.39-1.14,1.78-2.72,2.74-2.74,9.32-.21,18.64-.12,28.04-.12,2.49,8.18,4.88,16.01,7.22,23.67h17.88c-.42-1.46-.71-2.63-1.09-3.78-8.54-25.98-17.07-51.97-25.65-77.94-1.28-3.89-1.75-9.17-4.51-11.14-2.78-1.98-7.95-.44-12.03-.83-3.21-.31-4.41.94-5.37,3.91-7.38,22.66-14.97,45.26-22.7,68.57m148.51-18.79c-.09,4.13-.55,8.28-.2,12.37,1.38,16.13,10.24,26.47,24.88,28.61,8.7,1.27,17.38.4,25.84-2.37,3.24-1.06,4.37-2.71,4.35-6.23-.16-27.28-.09-54.56-.09-81.83v-4.4h-15.64v26.53c-6.11,0-12.15-1.09-17.62.21-13.47,3.2-19.29,13.44-21.51,27.12m-28.97,40.06h14.9c0-16.08.08-31.83-.03-47.57-.07-11.2-5.63-18.05-16.75-20.22-11.32-2.21-22.5-1.12-33.5,2.46-2.73.89-3.32,2.31-3.31,4.95.11,18.99.05,37.99.07,56.98,0,1.15.22,2.3.32,3.36h15.31v-57.25c2.22-.49,4.11-1.07,6.04-1.32,10.82-1.38,16.8,1.58,16.33,14.36-.54,14.52-.03,29.09.62,44.25m-213.29-32.38c-.37-4.57-.3-9.22-1.18-13.69-2.8-14.2-12.34-22.38-25.97-22.76-14.03-.39-23.73,7.16-27.44,21.5-2.31,8.91-2.37,17.89-.11,26.82,3.66,14.48,13.27,22.17,27.15,21.9,13.8-.26,23.39-8.47,26.42-22.86.69-3.27.77-6.68,1.13-10.91m344.46,22.72c-11.97-.06-18.67-6.55-18.71-18.39,13.54-1.99,27.12-3.99,41.24-6.07-.35-4.18-.4-8.15-1.07-12.01-1.73-9.96-6.28-18.2-16.55-21.23-10.69-3.16-21.1-2.25-29.55,5.99-12.4,12.09-12.57,41.33-.58,53.91,8.82,9.25,20.01,9.77,31.54,8.24,4.67-.62,9.18-2.41,13.92-3.7-1.58-4.06-2.73-7-3.66-9.39-5.58.95-10.64,1.81-16.56,2.67m65.14,7.17c4.36-2.88,7.56-6.65,8.92-11.79,2.66-10.08-2.06-18.87-12.82-24.01-2.75-1.31-5.65-2.44-8.13-4.15-3.48-2.4-5.6-5.66-4.05-10.22,1.39-4.12,4.72-6.51,9.68-5.94,3.51.41,6.89,1.83,10.55,2.86,1.04-2.54,2.18-5.32,3.37-8.25-5.67-3.88-11.74-4.94-18.08-4.85-10.8.15-18.95,6.42-20.79,15.89-1.82,9.36,2.85,17.3,12.81,21.84,2.63,1.2,5.32,2.3,7.82,3.73,4.21,2.42,5.05,6.4,3.97,10.74-1.09,4.39-4.4,6.9-8.73,6.68-4.71-.24-9.36-1.54-14.35-2.44-.94,2.28-2.22,5.36-3.7,8.94,10.91,5.46,21.74,6.91,33.55.96m-361.86-4.1c1.55-3.58,4.01-7.05,4.48-10.77,1.2-9.52-3.38-16.17-13.09-20.91-3.01-1.47-6.12-2.83-8.87-4.71-3.33-2.27-4.72-5.71-3.4-9.67,1.37-4.09,4.56-6.37,8.79-5.95,3.77.38,7.44,1.7,11.49,2.68,1-2.36,2.17-5.12,3.4-8.04-5.73-3.94-11.95-5.04-18.47-4.87-10.46.27-18.55,6.44-20.27,15.33-1.92,9.92,2.52,17.82,12.57,22.38,2.5,1.14,5.13,2.05,7.48,3.43,3.98,2.33,5.82,6.93,4.48,11.04-1.44,4.41-4.67,7.06-9.29,6.71-4.55-.34-9.03-1.58-13.93-2.49-.99,2.46-2.23,5.52-3.43,8.49,10.84,7.86,28.02,6.76,38.06-2.66m-117.96-14.71v-73.03h-15.32v94.27h15.32v-21.25m-15.64-105.27c1.03,6.61,4.5,11.17,11.02,11.59,7.19.47,14.5-.62,21.74-1.16,2.82-.21,3.51-2,3.49-4.77-.13-17-.06-34.01-.08-51.01,0-.86-.21-1.72-.32-2.5h-10.06v51.86c-10.16,4.37-15.37,1.07-15.38-9.39,0-11.8,0-23.59,0-35.39v-7.07h-10.43c0,15.82,0,31.41,0,47.84m395.37,2.11v-50.38h-9.82v16.83c-1.75-.12-3.08-.18-4.41-.3-9.32-.85-16.91,3.56-19.36,12.61-1.39,5.14-1.58,10.91-.91,16.23,1.19,9.42,7.6,14.89,17.07,15.55,3.17.22,6.44-.03,9.59-.54,7.86-1.26,7.85-1.37,7.85-10m-85.29-3.59v-46.71h-9.98v16.89c-1.82-.19-3.3-.42-4.79-.49-6.69-.35-12.32,1.71-16.41,7.28-5.2,7.08-5.76,21.22-.89,28.85,5.44,8.52,13.88,9.25,22.74,8.07,9.32-1.24,9.32-1.45,9.32-10.68v-3.2m116.05-11.66c.01,2.75-.19,5.53.07,8.26.95,9.92,7.15,16.55,17.06,17.28,4.77.35,9.67-.82,14.5-1.44,2.66-.34,3.66-1.87,3.6-4.73-.2-9.5-.07-19-.07-28.51,0-8.56,0-17.11,0-25.86h-10.2v16.62c-15.67-1.23-22.1,3.38-24.96,18.38m-345.22,24.24c.03-9.81.14-19.61.05-29.42-.07-7.41-3.53-12.3-10.92-12.95-6.85-.6-13.88.58-20.8,1.29-.98.1-2.55,1.93-2.57,2.98-.18,12.84-.12,25.68-.12,38.7h10.23c0-1.71,0-3.21,0-4.71,0-9.35-.03-18.69.04-28.04.01-1.27.43-3.58.88-3.63,3.1-.37,6.53-1.04,9.31-.06,1.79.63,3.52,3.82,3.74,6.01.54,5.46.21,11.01.21,16.53,0,4.68,0,9.36,0,13.94,3.56,0,6.46,0,9.94-.65m270.58-15.32c0-4.75.1-9.5-.03-14.25-.13-4.83-1.54-9.33-6.18-11.53-8.31-3.94-16.46-2.34-24.77,1.08.93,2.29,1.6,3.95,2.26,5.58,14.86-4.14,19.4-2.61,19.23,6.64-1.87.32-3.87.47-5.74,1.03-4.07,1.22-8.36,2.12-12.05,4.11-5.29,2.86-6.74,7.96-5.86,13.79.84,5.64,4.49,9.01,9.7,9.51,6.14.6,12.42.09,18.62-.26,3.86-.22,5.41-2.54,4.88-6.52-.36-2.71-.07-5.51-.07-9.18m130.61-27.17c-11.46,4.96-16.11,20.58-9.98,33.54,5.03,10.65,19.59,13.97,32.1,7.2-.72-1.93-1.45-3.87-2.16-5.78-15.56,3.88-22,1.01-22.26-9.77,8.57-1.27,17.16-2.55,25.64-3.81,1.4-16.12-7.93-24.83-23.34-21.38m-328.64,34.73c6.64,10.14,21.15,12.9,31.55,5.91-.74-1.91-1.48-3.83-2.21-5.72-15.55,5.3-22.1-.24-22.27-9.6,7.47-1.08,15-2.07,22.49-3.34,1.27-.22,3.3-1.59,3.34-2.51.4-8.02-2.5-17.59-12.56-19.77-10.04-2.18-18.91,2.49-21.75,12.02-2.24,7.53-2.05,15.09,1.42,23.03m-26.54-5.69c-2.39-8.69-4.71-17.4-7.24-26.05-.33-1.15-1.62-2.68-2.64-2.83-2.74-.39-5.57-.13-8.81-.13,4.02,12.36,7.78,23.97,11.58,35.57q2.59,7.9,10.81,7.67c.42-.01.84-.23,1.43-.41,4.53-14.15,9.06-28.3,13.66-42.69h-9.27c-.37,1.13-.74,2.13-1.03,3.16-2.44,8.84-4.85,17.69-7.32,26.52-.02.06-.67-.06-1.18-.8m96.83,13.97c3.33.35,6.68,1.08,9.99.96,6.76-.25,12.1-4.79,13.23-10.7,1.17-6.1-1.64-11.14-8.07-14.41-1.77-.9-3.66-1.6-5.3-2.67-2.55-1.66-4.28-4.41-2.36-6.95,1.36-1.81,4.35-2.83,6.78-3.25,1.69-.29,3.65,1.03,5.71,1.71.76-1.89,1.47-3.65,2.2-5.46-5.46-3.04-10.76-3.92-16.3-2.24-4.79,1.45-7.83,4.76-8.6,9.75-.79,5.14.9,9.4,5.49,12.15,1.95,1.17,4.1,2.03,6.17,3,3.34,1.57,4.97,4.11,3.91,7.77-1.02,3.56-3.91,4.57-7.22,4.15-2.36-.3-4.66-1.13-7.26-1.79-.75,1.78-1.56,3.71-2.48,5.89,1.33.67,2.39,1.2,4.12,2.08m-18.56-28.67v-7.94h9.11c.63-2.48,1.17-4.64,1.99-7.87-7.55,1.05-14.34,2-20.89,2.91v41.56h9.79v-28.66m60.65,28.14v-42.22h-9.85v42.87c3.23,0,6.25,0,9.85-.65m-174.46-9.81v10.43h9.8v-42.8h-9.8v32.37m164.47-46.91c-1.42,2.93-.33,5.58,2.31,6.32,2.07.58,5.06-.17,6.87-1.43.95-.67.96-4.96.15-5.43-2.07-1.18-4.83-1.23-7.34-1.49-.51-.05-1.12.92-1.99,2.04m-158.84-2.79c-3.25-.04-5.69,1.01-5.94,4.7-.2,2.91,1.32,4.6,4.12,5,2.99.43,5.62-.35,6.42-3.58.77-3.15-.73-5.25-4.6-6.13Z"/>
  <path class="cls-5" d="m155.43,276.05c-18.66.86-36.51-2.76-53.73-9.76-2.78-1.13-5.43-2.57-8.51-4.28-.67-.48-.98-.56-1.28-.63,0,0,.07-.03.12-.32-7.16-7.76-9-17.17-9.02-26.98-.11-49.06-.05-98.11-.05-147.17,0-1.22,0-2.44,0-3.95,22.43-7.37,45.1-13.31,68.7-13.65,24.44-.36,47.89,5.88,71.07,12.98,1.14.35,2.43,2.59,2.44,3.96.12,48.44.13,96.89.08,145.33-.01,9.44-4,17.12-12.14,21.86-8.17,4.76-16.6,9.25-25.36,12.75-5.67,2.27-12.09,2.93-18.26,3.59-4.05.43-5.87-2.17-5.6-6.47.44-7.07,4.31-12.21,8.57-17.35,1.69-2.04,3.44-4.55,3.83-7.06,3-19.13,4.58-38.48,1.88-57.67-4.19-29.84-9.56-59.52-18.25-88.46-1.93-6.41-4.25-12.69-9.57-18.19-1.05,1.9-1.91,3.26-2.59,4.71-4.71,9.96-7.02,20.6-7.83,31.46-2.49,33.74-4.64,67.5-6.88,101.26-.05.76.43,1.55.66,2.33.26-.02.53-.03.79-.05,5.23-40.52,10.45-81.03,15.68-121.55.44.06.88.13,1.33.19,1.64,10.12,3.33,20.23,4.92,30.35,2.53,16.16,5.8,32.25,7.29,48.51,1.95,21.33,2.5,42.79,3.57,64.19.36,7.17-2.53,13.35-7.64,17.95-3.58,3.22-5.24,6.59-4.98,11.15.21,3.66.51,7.32.77,10.98Z"/>
  <path class="cls-2" d="m155.86,276.11c-.69-3.72-.99-7.38-1.2-11.04-.26-4.56,1.4-7.93,4.98-11.15,5.11-4.6,8-10.78,7.64-17.95-1.08-21.41-1.63-42.86-3.57-64.19-1.48-16.26-4.76-32.35-7.29-48.51-1.59-10.13-3.28-20.24-4.92-30.35-.44-.06-.88-.13-1.33-.19-5.23,40.52-10.45,81.03-15.68,121.55-.26.02-.53.03-.79.05-.23-.78-.71-1.57-.66-2.33,2.24-33.76,4.39-67.52,6.88-101.26.8-10.86,3.11-21.5,7.83-31.46.68-1.44,1.54-2.81,2.59-4.71,5.32,5.5,7.64,11.78,9.57,18.19,8.7,28.94,14.06,58.62,18.25,88.46,2.69,19.19,1.12,38.54-1.88,57.67-.39,2.51-2.15,5.02-3.83,7.06-4.25,5.14-8.13,10.28-8.57,17.35-.27,4.3,1.55,6.9,5.6,6.47,6.16-.66,12.59-1.32,18.26-3.59,8.76-3.5,17.19-7.99,25.36-12.75,8.14-4.74,12.13-12.42,12.14-21.86.06-48.44.05-96.89-.08-145.33,0-1.37-1.29-3.61-2.44-3.96-23.17-7.1-46.63-13.34-71.07-12.98-23.6.34-46.26,6.28-68.7,13.65,0,1.52,0,2.73,0,3.95,0,49.06-.06,98.11.05,147.17.02,9.81,1.86,19.22,9.01,27.02-3.94-1.41-8.1-2.72-11.62-5.01-4.32-2.81-8.37-6.18-12.03-9.82-3.75-3.73-5.98-8.42-5.98-13.98.03-53.33.02-106.67.02-160,0-.6.06-1.2.1-1.77,60.96-13.37,121.81-13.01,183.01.06,0,1.32,0,2.98,0,4.65,0,51.03-.11,102.07.08,153.1.04,11.25-4.59,19.32-13.9,25.14-23.07,14.44-48.03,22.56-75.83,22.65Z"/>
  <path class="cls-2" d="m456.53,223.72c7.63-22.97,15.22-45.56,22.6-68.22.97-2.97,2.16-4.22,5.37-3.91,4.08.4,9.26-1.15,12.03.83,2.75,1.97,3.22,7.25,4.51,11.14,8.58,25.97,17.11,51.95,25.65,77.94.38,1.15.67,2.32,1.09,3.78h-17.88c-2.34-7.66-4.72-15.49-7.22-23.67-9.4,0-18.73-.08-28.04.12-.96.02-2.35,1.61-2.74,2.74-2.35,6.91-4.47,13.9-6.68,20.91h-15.67c2.35-7.28,4.61-14.29,6.97-21.66m35.19-12.53h8.44c-4.17-14.44-8.1-28.04-12.11-41.92-4.17,14.01-8.27,27.8-12.48,41.92,5.46,0,10.35,0,16.15,0Z"/>
  <path class="cls-2" d="m605.01,204.88c2.15-13.29,7.97-23.52,21.45-26.72,5.47-1.3,11.51-.21,17.62-.21v-26.53h15.64v4.4c0,27.28-.07,54.56.09,81.83.02,3.52-1.11,5.17-4.35,6.23-8.46,2.78-17.14,3.65-25.84,2.37-14.64-2.14-23.49-12.47-24.88-28.61-.35-4.09.11-8.25.27-12.77m39.21-7.5v-10.34c-12.5-3.22-21.23,1.7-23.03,13.84-1.08,7.28-.96,14.98.11,22.28,1.46,9.97,7.96,14.13,18.02,13.43,3.41-.24,5.11-1.19,5-5.2-.3-11.02-.1-22.06-.1-34.01Z"/>
  <path class="cls-2" d="m575.67,245.04c-.35-14.85-.86-29.42-.32-43.94.48-12.78-5.5-15.74-16.33-14.36-1.93.25-3.82.82-6.04,1.32v57.25h-15.31c-.11-1.05-.32-2.2-.32-3.36-.02-18.99.03-37.99-.07-56.98-.01-2.65.58-4.07,3.31-4.95,10.99-3.58,22.17-4.67,33.5-2.46,11.13,2.17,16.68,9.02,16.75,20.22.1,15.75.03,31.5.03,47.57-5.2,0-10.05,0-15.19-.31Z"/>
  <path class="cls-2" d="m362.68,213.41c-.36,3.79-.44,7.19-1.13,10.47-3.03,14.39-12.61,22.59-26.42,22.86-13.89.26-23.49-7.43-27.15-21.9-2.26-8.93-2.2-17.91.11-26.82,3.72-14.34,13.42-21.88,27.44-21.5,13.63.38,23.16,8.55,25.97,22.76.88,4.47.82,9.12,1.18,14.14m-35.53-23.83c-7.62,13.21-6.73,26.9-1.83,40.59,1.51,4.23,5.37,6.07,10,5.84,4.73-.23,7.82-2.95,9.27-7.06,4.08-11.62,4.09-23.49.07-35.05-2.75-7.9-9.99-9.6-17.51-4.32Z"/>
  <path class="cls-2" d="m707.56,235.69c5.49-.86,10.55-1.72,16.13-2.67.93,2.39,2.08,5.33,3.66,9.39-4.74,1.3-9.25,3.08-13.92,3.7-11.53,1.54-22.72,1.01-31.54-8.24-11.99-12.57-11.81-41.82.58-53.91,8.45-8.24,18.86-9.16,29.55-5.99,10.27,3.04,14.82,11.28,16.55,21.23.67,3.86.72,7.83,1.07,12.01-14.12,2.08-27.7,4.08-41.24,6.07.04,11.84,6.74,18.34,19.13,18.39m7.15-34.46c-.26-1.51-.45-3.03-.79-4.52-1.48-6.42-5.18-9.95-11.05-10.61-5.7-.64-11.22,2.44-13.32,8.39-1.57,4.47-2.06,9.33-3.22,14.9,9.7-1.5,18.12-2.71,26.48-4.21.81-.15,1.3-2.07,1.89-3.95Z"/>
  <path class="cls-2" d="m771.97,243.02c-11.51,5.78-22.34,4.34-33.25-1.12,1.48-3.58,2.76-6.66,3.7-8.94,5,.9,9.65,2.2,14.35,2.44,4.33.22,7.64-2.29,8.73-6.68,1.08-4.34.24-8.31-3.97-10.74-2.5-1.44-5.19-2.53-7.82-3.73-9.96-4.54-14.63-12.49-12.81-21.84,1.84-9.47,10-15.73,20.79-15.89,6.35-.09,12.41.97,18.08,4.85-1.2,2.93-2.33,5.71-3.37,8.25-3.65-1.03-7.04-2.45-10.55-2.86-4.96-.57-8.29,1.82-9.68,5.94-1.54,4.56.58,7.82,4.05,10.22,2.48,1.71,5.38,2.84,8.13,4.15,10.76,5.14,15.48,13.93,12.82,24.01-1.36,5.14-4.56,8.91-9.22,11.95Z"/>
  <path class="cls-2" d="m410.19,239.01c-9.82,9.17-27.01,10.27-37.84,2.41,1.2-2.97,2.44-6.03,3.43-8.49,4.9.92,9.39,2.16,13.93,2.49,4.61.34,7.85-2.3,9.29-6.71,1.34-4.11-.5-8.71-4.48-11.04-2.36-1.38-4.98-2.29-7.48-3.43-10.05-4.56-14.49-12.46-12.57-22.38,1.72-8.89,9.8-15.06,20.27-15.33,6.51-.17,12.73.93,18.47,4.87-1.23,2.92-2.4,5.68-3.4,8.04-4.04-.98-7.72-2.31-11.49-2.68-4.24-.42-7.43,1.86-8.79,5.95-1.32,3.95.07,7.4,3.4,9.67,2.75,1.88,5.86,3.24,8.87,4.71,9.72,4.74,14.29,11.39,13.09,20.91-.47,3.72-2.93,7.19-4.7,11.02Z"/>
  <path class="cls-2" d="m292.45,224.5v20.79h-15.32v-94.27h15.32v73.49Z"/>
  <path class="cls-2" d="m276.8,118.35c0-16.01,0-31.6,0-47.42h10.43v7.07c0,11.8,0,23.59,0,35.39,0,10.46,5.21,13.76,15.38,9.39v-51.86h10.06c.1.79.32,1.65.32,2.5.02,17-.05,34.01.08,51.01.02,2.77-.67,4.56-3.49,4.77-7.24.54-14.55,1.63-21.74,1.16-6.52-.42-9.99-4.99-11.02-12.01Z"/>
  <path class="cls-2" d="m672.18,121.32c0,8.19.02,8.3-7.85,9.56-3.15.5-6.42.76-9.59.54-9.47-.67-15.88-6.13-17.07-15.55-.67-5.31-.47-11.09.91-16.23,2.44-9.05,10.04-13.46,19.36-12.61,1.32.12,2.65.18,4.41.3v-16.83h9.82c0,16.83,0,33.61,0,50.82m-16.14-28.41c-4.8.89-7.77,4.01-8.23,8.58-.53,5.22-.75,10.68.18,15.8,1.24,6.85,7.35,9.31,14.04,6.56v-31.01c-1.92,0-3.56,0-5.99.06Z"/>
  <path class="cls-2" d="m586.89,117.74v2.75c0,9.24,0,9.45-9.32,10.68-8.86,1.18-17.31.45-22.74-8.07-4.87-7.63-4.31-21.76.89-28.85,4.09-5.57,9.72-7.63,16.41-7.28,1.49.08,2.97.3,4.79.49v-16.89h9.98v47.16m-12.55,7.17c.85-.68,2.42-1.35,2.43-2.05.16-9.87.11-19.74.11-29.51-9.36-1.44-13.64,1.38-14.86,10.16-.57,4.15-.42,8.54.26,12.68,1.03,6.33,4.64,8.82,12.06,8.72Z"/>
  <path class="cls-2" d="m702.96,105.21c2.83-14.58,9.26-19.2,24.93-17.96v-16.62h10.2c0,8.75,0,17.31,0,25.86,0,9.5-.12,19.01.07,28.51.06,2.86-.94,4.39-3.6,4.73-4.83.62-9.73,1.79-14.5,1.44-9.91-.73-16.11-7.36-17.06-17.28-.26-2.73-.06-5.5-.05-8.68m10.78,11.98c2.62,7.09,6.76,9.11,14.21,6.65v-30.74c-10-.9-14.11,2.15-14.86,11.07-.34,4.06.2,8.2.65,13.01Z"/>
  <path class="cls-2" d="m357.43,130.19c-3.19.32-6.1.32-9.65.32,0-4.58,0-9.26,0-13.94,0-5.52.33-11.07-.21-16.53-.22-2.19-1.95-5.38-3.74-6.01-2.77-.98-6.2-.32-9.31.06-.44.05-.87,2.36-.88,3.63-.07,9.35-.04,18.69-.04,28.04,0,1.5,0,3.01,0,4.71h-10.23c0-13.02-.06-25.86.12-38.7.01-1.05,1.58-2.88,2.57-2.98,6.92-.7,13.95-1.88,20.8-1.29,7.39.64,10.86,5.54,10.92,12.95.09,9.8-.02,19.61-.34,29.74Z"/>
  <path class="cls-2" d="m628.29,115.01c0,3.22-.29,6.01.07,8.72.52,3.97-1.03,6.3-4.88,6.52-6.2.35-12.48.86-18.62.26-5.21-.51-8.86-3.87-9.7-9.51-.87-5.83.57-10.93,5.86-13.79,3.68-1.99,7.98-2.9,12.05-4.11,1.87-.56,3.86-.71,5.74-1.03.17-9.25-4.37-10.78-19.23-6.64-.66-1.63-1.33-3.29-2.26-5.58,8.31-3.42,16.47-5.02,24.77-1.08,4.64,2.2,6.05,6.7,6.18,11.53.13,4.75.03,9.5.03,14.71m-9.21,6.54v-14.52c-3.28.77-5.86,1.13-8.27,1.98-5.11,1.8-7.43,6.16-6.21,11.25.99,4.14,4.15,5.61,7.91,5.56,2.55-.03,6.2,1.12,6.58-4.26Z"/>
  <path class="cls-2" d="m759.27,87.29c15.04-3.37,24.37,5.34,22.97,21.46-8.48,1.26-17.07,2.54-25.64,3.81.26,10.78,6.7,13.65,22.26,9.77.71,1.91,1.44,3.85,2.16,5.78-12.51,6.77-27.06,3.44-32.1-7.2-6.13-12.96-1.48-28.58,10.35-33.62m13.63,13.77c-1.64-6.73-4.57-9.15-9.89-8.14-4.99.94-8.08,7.14-6.92,14.35,4.95-.76,9.94-1.38,14.85-2.39.85-.17,1.36-1.98,1.97-3.81Z"/>
  <path class="cls-2" d="m430.07,121.81c-3.28-7.65-3.48-15.2-1.23-22.73,2.84-9.53,11.71-14.2,21.75-12.02,10.06,2.18,12.96,11.76,12.56,19.77-.05.92-2.07,2.3-3.34,2.51-7.49,1.27-15.02,2.26-22.49,3.34.17,9.36,6.72,14.9,22.27,9.6.73,1.89,1.48,3.81,2.21,5.72-10.39,6.99-24.91,4.24-31.73-6.2m19.21-16.15c1.57-.38,3.14-.75,4.65-1.11-.68-8.88-3.43-12.21-9.33-11.6-5.49.56-8.88,6.73-7.77,14.44,3.88-.55,7.77-1.1,12.46-1.72Z"/>
  <path class="cls-2" d="m403.8,116.77c.43.39,1.09.51,1.1.45,2.47-8.83,4.88-17.68,7.32-26.52.28-1.03.66-2.03,1.03-3.16h9.27c-4.6,14.38-9.13,28.54-13.66,42.69-.59.17-1.01.4-1.43.41q-8.2.24-10.81-7.67c-3.8-11.6-7.56-23.21-11.58-35.57,3.23,0,6.07-.26,8.81.13,1.02.15,2.31,1.68,2.64,2.83,2.53,8.65,4.85,17.36,7.31,26.41Z"/>
  <path class="cls-2" d="m500.22,130.21c-1.4-.71-2.46-1.24-3.79-1.91.92-2.18,1.73-4.11,2.48-5.89,2.6.66,4.9,1.49,7.26,1.79,3.32.42,6.2-.6,7.22-4.15,1.05-3.66-.57-6.19-3.91-7.77-2.07-.98-4.21-1.83-6.17-3-4.59-2.75-6.29-7-5.49-12.15.77-4.99,3.81-8.3,8.6-9.75,5.54-1.68,10.85-.8,16.3,2.24-.73,1.82-1.44,3.58-2.2,5.46-2.06-.67-4.02-2-5.71-1.71-2.43.42-5.42,1.44-6.78,3.25-1.92,2.55-.19,5.29,2.36,6.95,1.65,1.08,3.54,1.77,5.3,2.67,6.43,3.27,9.24,8.3,8.07,14.41-1.13,5.9-6.47,10.45-13.23,10.7-3.31.12-6.66-.62-10.32-1.14Z"/>
  <path class="cls-2" d="m481.99,102.17v28.21h-9.79v-41.56c6.56-.91,13.34-1.86,20.89-2.91-.82,3.23-1.36,5.39-1.99,7.87h-9.11v8.39Z"/>
  <path class="cls-2" d="m542.35,130.18c-3.31.32-6.33.32-9.56.32v-42.87h9.85c0,14.16,0,28.19-.29,42.55Z"/>
  <path class="cls-2" d="m368.18,119.6v-31.92h9.8v42.8h-9.8v-10.88Z"/>
  <path class="cls-2" d="m532.8,72.83c.71-.81,1.33-1.78,1.84-1.73,2.51.27,5.28.31,7.34,1.49.82.47.81,4.76-.15,5.43-1.81,1.27-4.8,2.01-6.87,1.43-2.64-.74-3.73-3.39-2.16-6.63Z"/>
  <path class="cls-2" d="m374.14,70.4c3.54.82,5.04,2.93,4.27,6.08-.79,3.23-3.43,4.01-6.42,3.58-2.8-.41-4.32-2.09-4.12-5,.25-3.7,2.69-4.74,6.27-4.65Z"/>
  <path class="cls-3" d="m91.83,261.7c.39-.25.69-.18,1.07.16-.33.23-.75.2-1.07-.16Z"/>
  <path class="cls-4" d="m491.27,211.19c-5.35,0-10.24,0-15.7,0,4.2-14.12,8.31-27.91,12.48-41.92,4.01,13.88,7.94,27.48,12.11,41.92-3.11,0-5.78,0-8.89,0Z"/>
  <path class="cls-7" d="m644.22,197.84c0,11.49-.2,22.52.1,33.55.11,4-1.59,4.96-5,5.2-10.06.71-16.55-3.46-18.02-13.43-1.07-7.29-1.19-15-.11-22.28,1.8-12.14,10.53-17.06,23.03-13.84v10.8Z"/>
  <path class="cls-9" d="m327.39,189.34c7.27-5.04,14.52-3.34,17.27,4.56,4.02,11.56,4.02,23.43-.07,35.05-1.45,4.12-4.54,6.84-9.27,7.06-4.63.22-8.49-1.62-10-5.84-4.9-13.69-5.8-27.38,2.06-40.83Z"/>
  <path class="cls-6" d="m714.74,201.62c-.61,1.49-1.11,3.42-1.92,3.56-8.37,1.5-16.78,2.72-26.48,4.21,1.16-5.57,1.65-10.43,3.22-14.9,2.09-5.95,7.62-9.04,13.32-8.39,5.87.66,9.57,4.19,11.05,10.61.34,1.49.53,3.01.82,4.91Z"/>
  <path class="cls-8" d="m656.43,92.88c2.03-.03,3.68-.03,5.6-.03v31.01c-6.7,2.75-12.81.29-14.04-6.56-.93-5.12-.7-10.58-.18-15.8.46-4.58,3.43-7.69,8.63-8.62Z"/>
  <path class="cls-5" d="m573.94,124.94c-7.03.07-10.64-2.42-11.67-8.75-.67-4.14-.83-8.53-.26-12.68,1.21-8.78,5.49-11.6,14.86-10.16,0,9.77.05,19.65-.11,29.51-.01.69-1.59,1.36-2.83,2.08Z"/>
  <path class="cls-9" d="m713.58,116.84c-.3-4.46-.84-8.59-.5-12.65.75-8.92,4.86-11.98,14.86-11.07v30.74c-7.45,2.46-11.59.44-14.36-7.01Z"/>
  <path class="cls-4" d="m619.08,121.96c-.38,4.97-4.03,3.81-6.58,3.85-3.76.05-6.91-1.42-7.91-5.56-1.22-5.09,1.11-9.45,6.21-11.25,2.41-.85,4.99-1.21,8.27-1.98,0,5.23,0,9.87,0,14.94Z"/>
  <path class="cls-4" d="m772.94,101.45c-.64,1.44-1.15,3.24-2,3.42-4.91,1.01-9.89,1.64-14.85,2.39-1.15-7.2,1.93-13.4,6.92-14.35,5.32-1,8.25,1.42,9.92,8.53Z"/>
  <path class="cls-4" d="m448.88,105.69c-4.29.59-8.17,1.14-12.05,1.69-1.11-7.71,2.28-13.87,7.77-14.44,5.89-.6,8.65,2.72,9.33,11.6-1.51.36-3.08.74-5.05,1.14Z"/>
</svg>